%TF.GenerationSoftware,KiCad,Pcbnew,10.0.1*%
%TF.CreationDate,2026-10-09T09:32:18+03:00*%
%TF.ProjectId,solderdemon_m68k,736f6c64-6572-4646-956d-6f6e5f6d3638,r1*%
%TF.SameCoordinates,Original*%
%TF.FileFunction,Legend,Bot*%
%TF.FilePolarity,Positive*%
%FSLAX46Y46*%
G04 Gerber Fmt 4.6, Leading zero omitted, Abs format (unit mm)*
G04 Created by KiCad (PCBNEW 10.0.1) date 2026-10-09 09:32:18*
%MOMM*%
%LPD*%
G01*
G04 APERTURE LIST*
%ADD10C,0.150000*%
%ADD11C,0.400000*%
%ADD12C,0.000000*%
G04 APERTURE END LIST*
D10*
X127880952Y-75254819D02*
X127880952Y-74254819D01*
X127880952Y-74254819D02*
X127547619Y-74969104D01*
X127547619Y-74969104D02*
X127214286Y-74254819D01*
X127214286Y-74254819D02*
X127214286Y-75254819D01*
X126309524Y-74254819D02*
X126500000Y-74254819D01*
X126500000Y-74254819D02*
X126595238Y-74302438D01*
X126595238Y-74302438D02*
X126642857Y-74350057D01*
X126642857Y-74350057D02*
X126738095Y-74492914D01*
X126738095Y-74492914D02*
X126785714Y-74683390D01*
X126785714Y-74683390D02*
X126785714Y-75064342D01*
X126785714Y-75064342D02*
X126738095Y-75159580D01*
X126738095Y-75159580D02*
X126690476Y-75207200D01*
X126690476Y-75207200D02*
X126595238Y-75254819D01*
X126595238Y-75254819D02*
X126404762Y-75254819D01*
X126404762Y-75254819D02*
X126309524Y-75207200D01*
X126309524Y-75207200D02*
X126261905Y-75159580D01*
X126261905Y-75159580D02*
X126214286Y-75064342D01*
X126214286Y-75064342D02*
X126214286Y-74826247D01*
X126214286Y-74826247D02*
X126261905Y-74731009D01*
X126261905Y-74731009D02*
X126309524Y-74683390D01*
X126309524Y-74683390D02*
X126404762Y-74635771D01*
X126404762Y-74635771D02*
X126595238Y-74635771D01*
X126595238Y-74635771D02*
X126690476Y-74683390D01*
X126690476Y-74683390D02*
X126738095Y-74731009D01*
X126738095Y-74731009D02*
X126785714Y-74826247D01*
X125642857Y-74683390D02*
X125738095Y-74635771D01*
X125738095Y-74635771D02*
X125785714Y-74588152D01*
X125785714Y-74588152D02*
X125833333Y-74492914D01*
X125833333Y-74492914D02*
X125833333Y-74445295D01*
X125833333Y-74445295D02*
X125785714Y-74350057D01*
X125785714Y-74350057D02*
X125738095Y-74302438D01*
X125738095Y-74302438D02*
X125642857Y-74254819D01*
X125642857Y-74254819D02*
X125452381Y-74254819D01*
X125452381Y-74254819D02*
X125357143Y-74302438D01*
X125357143Y-74302438D02*
X125309524Y-74350057D01*
X125309524Y-74350057D02*
X125261905Y-74445295D01*
X125261905Y-74445295D02*
X125261905Y-74492914D01*
X125261905Y-74492914D02*
X125309524Y-74588152D01*
X125309524Y-74588152D02*
X125357143Y-74635771D01*
X125357143Y-74635771D02*
X125452381Y-74683390D01*
X125452381Y-74683390D02*
X125642857Y-74683390D01*
X125642857Y-74683390D02*
X125738095Y-74731009D01*
X125738095Y-74731009D02*
X125785714Y-74778628D01*
X125785714Y-74778628D02*
X125833333Y-74873866D01*
X125833333Y-74873866D02*
X125833333Y-75064342D01*
X125833333Y-75064342D02*
X125785714Y-75159580D01*
X125785714Y-75159580D02*
X125738095Y-75207200D01*
X125738095Y-75207200D02*
X125642857Y-75254819D01*
X125642857Y-75254819D02*
X125452381Y-75254819D01*
X125452381Y-75254819D02*
X125357143Y-75207200D01*
X125357143Y-75207200D02*
X125309524Y-75159580D01*
X125309524Y-75159580D02*
X125261905Y-75064342D01*
X125261905Y-75064342D02*
X125261905Y-74873866D01*
X125261905Y-74873866D02*
X125309524Y-74778628D01*
X125309524Y-74778628D02*
X125357143Y-74731009D01*
X125357143Y-74731009D02*
X125452381Y-74683390D01*
X124833333Y-75254819D02*
X124833333Y-74254819D01*
X124261905Y-75254819D02*
X124690476Y-74683390D01*
X124261905Y-74254819D02*
X124833333Y-74826247D01*
X122500000Y-75159580D02*
X122547619Y-75207200D01*
X122547619Y-75207200D02*
X122690476Y-75254819D01*
X122690476Y-75254819D02*
X122785714Y-75254819D01*
X122785714Y-75254819D02*
X122928571Y-75207200D01*
X122928571Y-75207200D02*
X123023809Y-75111961D01*
X123023809Y-75111961D02*
X123071428Y-75016723D01*
X123071428Y-75016723D02*
X123119047Y-74826247D01*
X123119047Y-74826247D02*
X123119047Y-74683390D01*
X123119047Y-74683390D02*
X123071428Y-74492914D01*
X123071428Y-74492914D02*
X123023809Y-74397676D01*
X123023809Y-74397676D02*
X122928571Y-74302438D01*
X122928571Y-74302438D02*
X122785714Y-74254819D01*
X122785714Y-74254819D02*
X122690476Y-74254819D01*
X122690476Y-74254819D02*
X122547619Y-74302438D01*
X122547619Y-74302438D02*
X122500000Y-74350057D01*
X121928571Y-75254819D02*
X122023809Y-75207200D01*
X122023809Y-75207200D02*
X122071428Y-75159580D01*
X122071428Y-75159580D02*
X122119047Y-75064342D01*
X122119047Y-75064342D02*
X122119047Y-74778628D01*
X122119047Y-74778628D02*
X122071428Y-74683390D01*
X122071428Y-74683390D02*
X122023809Y-74635771D01*
X122023809Y-74635771D02*
X121928571Y-74588152D01*
X121928571Y-74588152D02*
X121785714Y-74588152D01*
X121785714Y-74588152D02*
X121690476Y-74635771D01*
X121690476Y-74635771D02*
X121642857Y-74683390D01*
X121642857Y-74683390D02*
X121595238Y-74778628D01*
X121595238Y-74778628D02*
X121595238Y-75064342D01*
X121595238Y-75064342D02*
X121642857Y-75159580D01*
X121642857Y-75159580D02*
X121690476Y-75207200D01*
X121690476Y-75207200D02*
X121785714Y-75254819D01*
X121785714Y-75254819D02*
X121928571Y-75254819D01*
X121166666Y-75254819D02*
X121166666Y-74588152D01*
X121166666Y-74683390D02*
X121119047Y-74635771D01*
X121119047Y-74635771D02*
X121023809Y-74588152D01*
X121023809Y-74588152D02*
X120880952Y-74588152D01*
X120880952Y-74588152D02*
X120785714Y-74635771D01*
X120785714Y-74635771D02*
X120738095Y-74731009D01*
X120738095Y-74731009D02*
X120738095Y-75254819D01*
X120738095Y-74731009D02*
X120690476Y-74635771D01*
X120690476Y-74635771D02*
X120595238Y-74588152D01*
X120595238Y-74588152D02*
X120452381Y-74588152D01*
X120452381Y-74588152D02*
X120357142Y-74635771D01*
X120357142Y-74635771D02*
X120309523Y-74731009D01*
X120309523Y-74731009D02*
X120309523Y-75254819D01*
X119833333Y-74588152D02*
X119833333Y-75588152D01*
X119833333Y-74635771D02*
X119738095Y-74588152D01*
X119738095Y-74588152D02*
X119547619Y-74588152D01*
X119547619Y-74588152D02*
X119452381Y-74635771D01*
X119452381Y-74635771D02*
X119404762Y-74683390D01*
X119404762Y-74683390D02*
X119357143Y-74778628D01*
X119357143Y-74778628D02*
X119357143Y-75064342D01*
X119357143Y-75064342D02*
X119404762Y-75159580D01*
X119404762Y-75159580D02*
X119452381Y-75207200D01*
X119452381Y-75207200D02*
X119547619Y-75254819D01*
X119547619Y-75254819D02*
X119738095Y-75254819D01*
X119738095Y-75254819D02*
X119833333Y-75207200D01*
X118500000Y-74588152D02*
X118500000Y-75254819D01*
X118928571Y-74588152D02*
X118928571Y-75111961D01*
X118928571Y-75111961D02*
X118880952Y-75207200D01*
X118880952Y-75207200D02*
X118785714Y-75254819D01*
X118785714Y-75254819D02*
X118642857Y-75254819D01*
X118642857Y-75254819D02*
X118547619Y-75207200D01*
X118547619Y-75207200D02*
X118500000Y-75159580D01*
X118166666Y-74588152D02*
X117785714Y-74588152D01*
X118023809Y-74254819D02*
X118023809Y-75111961D01*
X118023809Y-75111961D02*
X117976190Y-75207200D01*
X117976190Y-75207200D02*
X117880952Y-75254819D01*
X117880952Y-75254819D02*
X117785714Y-75254819D01*
X117071428Y-75207200D02*
X117166666Y-75254819D01*
X117166666Y-75254819D02*
X117357142Y-75254819D01*
X117357142Y-75254819D02*
X117452380Y-75207200D01*
X117452380Y-75207200D02*
X117499999Y-75111961D01*
X117499999Y-75111961D02*
X117499999Y-74731009D01*
X117499999Y-74731009D02*
X117452380Y-74635771D01*
X117452380Y-74635771D02*
X117357142Y-74588152D01*
X117357142Y-74588152D02*
X117166666Y-74588152D01*
X117166666Y-74588152D02*
X117071428Y-74635771D01*
X117071428Y-74635771D02*
X117023809Y-74731009D01*
X117023809Y-74731009D02*
X117023809Y-74826247D01*
X117023809Y-74826247D02*
X117499999Y-74921485D01*
X116595237Y-75254819D02*
X116595237Y-74588152D01*
X116595237Y-74778628D02*
X116547618Y-74683390D01*
X116547618Y-74683390D02*
X116499999Y-74635771D01*
X116499999Y-74635771D02*
X116404761Y-74588152D01*
X116404761Y-74588152D02*
X116309523Y-74588152D01*
X115214284Y-75254819D02*
X115214284Y-74588152D01*
X115214284Y-74778628D02*
X115166665Y-74683390D01*
X115166665Y-74683390D02*
X115119046Y-74635771D01*
X115119046Y-74635771D02*
X115023808Y-74588152D01*
X115023808Y-74588152D02*
X114928570Y-74588152D01*
X114071427Y-75254819D02*
X114642855Y-75254819D01*
X114357141Y-75254819D02*
X114357141Y-74254819D01*
X114357141Y-74254819D02*
X114452379Y-74397676D01*
X114452379Y-74397676D02*
X114547617Y-74492914D01*
X114547617Y-74492914D02*
X114642855Y-74540533D01*
D11*
X130380952Y-72609200D02*
X130095238Y-72704438D01*
X130095238Y-72704438D02*
X129619047Y-72704438D01*
X129619047Y-72704438D02*
X129428571Y-72609200D01*
X129428571Y-72609200D02*
X129333333Y-72513961D01*
X129333333Y-72513961D02*
X129238095Y-72323485D01*
X129238095Y-72323485D02*
X129238095Y-72133009D01*
X129238095Y-72133009D02*
X129333333Y-71942533D01*
X129333333Y-71942533D02*
X129428571Y-71847295D01*
X129428571Y-71847295D02*
X129619047Y-71752057D01*
X129619047Y-71752057D02*
X130000000Y-71656819D01*
X130000000Y-71656819D02*
X130190476Y-71561580D01*
X130190476Y-71561580D02*
X130285714Y-71466342D01*
X130285714Y-71466342D02*
X130380952Y-71275866D01*
X130380952Y-71275866D02*
X130380952Y-71085390D01*
X130380952Y-71085390D02*
X130285714Y-70894914D01*
X130285714Y-70894914D02*
X130190476Y-70799676D01*
X130190476Y-70799676D02*
X130000000Y-70704438D01*
X130000000Y-70704438D02*
X129523809Y-70704438D01*
X129523809Y-70704438D02*
X129238095Y-70799676D01*
X128095238Y-72704438D02*
X128285714Y-72609200D01*
X128285714Y-72609200D02*
X128380952Y-72513961D01*
X128380952Y-72513961D02*
X128476190Y-72323485D01*
X128476190Y-72323485D02*
X128476190Y-71752057D01*
X128476190Y-71752057D02*
X128380952Y-71561580D01*
X128380952Y-71561580D02*
X128285714Y-71466342D01*
X128285714Y-71466342D02*
X128095238Y-71371104D01*
X128095238Y-71371104D02*
X127809523Y-71371104D01*
X127809523Y-71371104D02*
X127619047Y-71466342D01*
X127619047Y-71466342D02*
X127523809Y-71561580D01*
X127523809Y-71561580D02*
X127428571Y-71752057D01*
X127428571Y-71752057D02*
X127428571Y-72323485D01*
X127428571Y-72323485D02*
X127523809Y-72513961D01*
X127523809Y-72513961D02*
X127619047Y-72609200D01*
X127619047Y-72609200D02*
X127809523Y-72704438D01*
X127809523Y-72704438D02*
X128095238Y-72704438D01*
X126285714Y-72704438D02*
X126476190Y-72609200D01*
X126476190Y-72609200D02*
X126571428Y-72418723D01*
X126571428Y-72418723D02*
X126571428Y-70704438D01*
X124666666Y-72704438D02*
X124666666Y-70704438D01*
X124666666Y-72609200D02*
X124857142Y-72704438D01*
X124857142Y-72704438D02*
X125238095Y-72704438D01*
X125238095Y-72704438D02*
X125428571Y-72609200D01*
X125428571Y-72609200D02*
X125523809Y-72513961D01*
X125523809Y-72513961D02*
X125619047Y-72323485D01*
X125619047Y-72323485D02*
X125619047Y-71752057D01*
X125619047Y-71752057D02*
X125523809Y-71561580D01*
X125523809Y-71561580D02*
X125428571Y-71466342D01*
X125428571Y-71466342D02*
X125238095Y-71371104D01*
X125238095Y-71371104D02*
X124857142Y-71371104D01*
X124857142Y-71371104D02*
X124666666Y-71466342D01*
X122952380Y-72609200D02*
X123142856Y-72704438D01*
X123142856Y-72704438D02*
X123523809Y-72704438D01*
X123523809Y-72704438D02*
X123714285Y-72609200D01*
X123714285Y-72609200D02*
X123809523Y-72418723D01*
X123809523Y-72418723D02*
X123809523Y-71656819D01*
X123809523Y-71656819D02*
X123714285Y-71466342D01*
X123714285Y-71466342D02*
X123523809Y-71371104D01*
X123523809Y-71371104D02*
X123142856Y-71371104D01*
X123142856Y-71371104D02*
X122952380Y-71466342D01*
X122952380Y-71466342D02*
X122857142Y-71656819D01*
X122857142Y-71656819D02*
X122857142Y-71847295D01*
X122857142Y-71847295D02*
X123809523Y-72037771D01*
X121999999Y-72704438D02*
X121999999Y-71371104D01*
X121999999Y-71752057D02*
X121904761Y-71561580D01*
X121904761Y-71561580D02*
X121809523Y-71466342D01*
X121809523Y-71466342D02*
X121619047Y-71371104D01*
X121619047Y-71371104D02*
X121428570Y-71371104D01*
X120761904Y-72704438D02*
X120761904Y-70704438D01*
X120761904Y-70704438D02*
X120285714Y-70704438D01*
X120285714Y-70704438D02*
X119999999Y-70799676D01*
X119999999Y-70799676D02*
X119809523Y-70990152D01*
X119809523Y-70990152D02*
X119714285Y-71180628D01*
X119714285Y-71180628D02*
X119619047Y-71561580D01*
X119619047Y-71561580D02*
X119619047Y-71847295D01*
X119619047Y-71847295D02*
X119714285Y-72228247D01*
X119714285Y-72228247D02*
X119809523Y-72418723D01*
X119809523Y-72418723D02*
X119999999Y-72609200D01*
X119999999Y-72609200D02*
X120285714Y-72704438D01*
X120285714Y-72704438D02*
X120761904Y-72704438D01*
X117999999Y-72609200D02*
X118190475Y-72704438D01*
X118190475Y-72704438D02*
X118571428Y-72704438D01*
X118571428Y-72704438D02*
X118761904Y-72609200D01*
X118761904Y-72609200D02*
X118857142Y-72418723D01*
X118857142Y-72418723D02*
X118857142Y-71656819D01*
X118857142Y-71656819D02*
X118761904Y-71466342D01*
X118761904Y-71466342D02*
X118571428Y-71371104D01*
X118571428Y-71371104D02*
X118190475Y-71371104D01*
X118190475Y-71371104D02*
X117999999Y-71466342D01*
X117999999Y-71466342D02*
X117904761Y-71656819D01*
X117904761Y-71656819D02*
X117904761Y-71847295D01*
X117904761Y-71847295D02*
X118857142Y-72037771D01*
X117047618Y-72704438D02*
X117047618Y-71371104D01*
X117047618Y-71561580D02*
X116952380Y-71466342D01*
X116952380Y-71466342D02*
X116761904Y-71371104D01*
X116761904Y-71371104D02*
X116476189Y-71371104D01*
X116476189Y-71371104D02*
X116285713Y-71466342D01*
X116285713Y-71466342D02*
X116190475Y-71656819D01*
X116190475Y-71656819D02*
X116190475Y-72704438D01*
X116190475Y-71656819D02*
X116095237Y-71466342D01*
X116095237Y-71466342D02*
X115904761Y-71371104D01*
X115904761Y-71371104D02*
X115619047Y-71371104D01*
X115619047Y-71371104D02*
X115428570Y-71466342D01*
X115428570Y-71466342D02*
X115333332Y-71656819D01*
X115333332Y-71656819D02*
X115333332Y-72704438D01*
X114095237Y-72704438D02*
X114285713Y-72609200D01*
X114285713Y-72609200D02*
X114380951Y-72513961D01*
X114380951Y-72513961D02*
X114476189Y-72323485D01*
X114476189Y-72323485D02*
X114476189Y-71752057D01*
X114476189Y-71752057D02*
X114380951Y-71561580D01*
X114380951Y-71561580D02*
X114285713Y-71466342D01*
X114285713Y-71466342D02*
X114095237Y-71371104D01*
X114095237Y-71371104D02*
X113809522Y-71371104D01*
X113809522Y-71371104D02*
X113619046Y-71466342D01*
X113619046Y-71466342D02*
X113523808Y-71561580D01*
X113523808Y-71561580D02*
X113428570Y-71752057D01*
X113428570Y-71752057D02*
X113428570Y-72323485D01*
X113428570Y-72323485D02*
X113523808Y-72513961D01*
X113523808Y-72513961D02*
X113619046Y-72609200D01*
X113619046Y-72609200D02*
X113809522Y-72704438D01*
X113809522Y-72704438D02*
X114095237Y-72704438D01*
X112571427Y-71371104D02*
X112571427Y-72704438D01*
X112571427Y-71561580D02*
X112476189Y-71466342D01*
X112476189Y-71466342D02*
X112285713Y-71371104D01*
X112285713Y-71371104D02*
X111999998Y-71371104D01*
X111999998Y-71371104D02*
X111809522Y-71466342D01*
X111809522Y-71466342D02*
X111714284Y-71656819D01*
X111714284Y-71656819D02*
X111714284Y-72704438D01*
D12*
%TO.C,LOGO1*%
G36*
X142569500Y-71129800D02*
G01*
X142119200Y-71129800D01*
X142119200Y-71017200D01*
X142569500Y-71017200D01*
X142569500Y-71129800D01*
G37*
G36*
X142682100Y-71242400D02*
G01*
X142006600Y-71242400D01*
X142006600Y-71129800D01*
X142682100Y-71129800D01*
X142682100Y-71242400D01*
G37*
G36*
X142682100Y-71355000D02*
G01*
X142119200Y-71355000D01*
X142119200Y-71242400D01*
X142682100Y-71242400D01*
X142682100Y-71355000D01*
G37*
G36*
X142907300Y-71467500D02*
G01*
X142682100Y-71467500D01*
X142682100Y-71355000D01*
X142907300Y-71355000D01*
X142907300Y-71467500D01*
G37*
G36*
X142907300Y-71692700D02*
G01*
X142794700Y-71692700D01*
X142794700Y-71580100D01*
X142907300Y-71580100D01*
X142907300Y-71692700D01*
G37*
G36*
X143019900Y-71580100D02*
G01*
X142682100Y-71580100D01*
X142682100Y-71467500D01*
X143019900Y-71467500D01*
X143019900Y-71580100D01*
G37*
G36*
X143245000Y-72706000D02*
G01*
X143019900Y-72706000D01*
X143019900Y-72143000D01*
X143245000Y-72143000D01*
X143245000Y-72706000D01*
G37*
G36*
X143245000Y-74394700D02*
G01*
X143019900Y-74394700D01*
X143019900Y-72818500D01*
X143245000Y-72818500D01*
X143245000Y-74394700D01*
G37*
G36*
X143245000Y-74507300D02*
G01*
X143132500Y-74507300D01*
X143132500Y-74394700D01*
X143245000Y-74394700D01*
X143245000Y-74507300D01*
G37*
G36*
X143357600Y-71917900D02*
G01*
X143019900Y-71917900D01*
X143019900Y-71692700D01*
X143357600Y-71692700D01*
X143357600Y-71917900D01*
G37*
G36*
X143470200Y-74957600D02*
G01*
X143357600Y-74957600D01*
X143357600Y-74845000D01*
X143470200Y-74845000D01*
X143470200Y-74957600D01*
G37*
G36*
X143582800Y-67639700D02*
G01*
X143470200Y-67639700D01*
X143470200Y-67527200D01*
X143582800Y-67527200D01*
X143582800Y-67639700D01*
G37*
G36*
X143582800Y-69328500D02*
G01*
X143357600Y-69328500D01*
X143357600Y-67639700D01*
X143582800Y-67639700D01*
X143582800Y-69328500D01*
G37*
G36*
X143582800Y-72255600D02*
G01*
X143357600Y-72255600D01*
X143357600Y-71917900D01*
X143582800Y-71917900D01*
X143582800Y-72255600D01*
G37*
G36*
X143582800Y-74845000D02*
G01*
X143245000Y-74845000D01*
X143245000Y-74507300D01*
X143582800Y-74507300D01*
X143582800Y-74845000D01*
G37*
G36*
X143807900Y-67076800D02*
G01*
X143582800Y-67076800D01*
X143582800Y-66964200D01*
X143807900Y-66964200D01*
X143807900Y-67076800D01*
G37*
G36*
X143807900Y-67527200D02*
G01*
X143695400Y-67527200D01*
X143695400Y-67414600D01*
X143807900Y-67414600D01*
X143807900Y-67527200D01*
G37*
G36*
X143807900Y-69441100D02*
G01*
X143582800Y-69441100D01*
X143582800Y-69328500D01*
X143807900Y-69328500D01*
X143807900Y-69441100D01*
G37*
G36*
X143807900Y-75182800D02*
G01*
X143582800Y-75182800D01*
X143582800Y-74957600D01*
X143807900Y-74957600D01*
X143807900Y-75182800D01*
G37*
G36*
X143920500Y-67414600D02*
G01*
X143582800Y-67414600D01*
X143582800Y-67076800D01*
X143920500Y-67076800D01*
X143920500Y-67414600D01*
G37*
G36*
X143920500Y-70004000D02*
G01*
X143582800Y-70004000D01*
X143582800Y-69441100D01*
X143920500Y-69441100D01*
X143920500Y-70004000D01*
G37*
G36*
X143920500Y-72593400D02*
G01*
X143695400Y-72593400D01*
X143695400Y-72255600D01*
X143920500Y-72255600D01*
X143920500Y-72593400D01*
G37*
G36*
X144033100Y-70566900D02*
G01*
X143920500Y-70566900D01*
X143920500Y-70454300D01*
X144033100Y-70454300D01*
X144033100Y-70566900D01*
G37*
G36*
X144145700Y-66964200D02*
G01*
X143920500Y-66964200D01*
X143920500Y-66626500D01*
X144145700Y-66626500D01*
X144145700Y-66964200D01*
G37*
G36*
X144145700Y-70454300D02*
G01*
X143920500Y-70454300D01*
X143920500Y-70116600D01*
X144145700Y-70116600D01*
X144145700Y-70454300D01*
G37*
G36*
X144145700Y-75520500D02*
G01*
X143807900Y-75520500D01*
X143807900Y-75295400D01*
X144145700Y-75295400D01*
X144145700Y-75520500D01*
G37*
G36*
X144258300Y-72706000D02*
G01*
X143920500Y-72706000D01*
X143920500Y-72593400D01*
X144258300Y-72593400D01*
X144258300Y-72706000D01*
G37*
G36*
X144370900Y-66626500D02*
G01*
X144145700Y-66626500D01*
X144145700Y-66288700D01*
X144370900Y-66288700D01*
X144370900Y-66626500D01*
G37*
G36*
X144370900Y-70792100D02*
G01*
X144145700Y-70792100D01*
X144145700Y-70566900D01*
X144370900Y-70566900D01*
X144370900Y-70792100D01*
G37*
G36*
X144370900Y-70904600D02*
G01*
X144258300Y-70904600D01*
X144258300Y-70792100D01*
X144370900Y-70792100D01*
X144370900Y-70904600D01*
G37*
G36*
X144370900Y-72931100D02*
G01*
X143920500Y-72931100D01*
X143920500Y-72706000D01*
X144370900Y-72706000D01*
X144370900Y-72931100D01*
G37*
G36*
X144370900Y-75858300D02*
G01*
X144145700Y-75858300D01*
X144145700Y-75520500D01*
X144370900Y-75520500D01*
X144370900Y-75858300D01*
G37*
G36*
X144596000Y-66063600D02*
G01*
X144370900Y-66063600D01*
X144370900Y-65951000D01*
X144596000Y-65951000D01*
X144596000Y-66063600D01*
G37*
G36*
X144596000Y-66288700D02*
G01*
X144483400Y-66288700D01*
X144483400Y-66176200D01*
X144596000Y-66176200D01*
X144596000Y-66288700D01*
G37*
G36*
X144596000Y-73381500D02*
G01*
X144370900Y-73381500D01*
X144370900Y-72931100D01*
X144596000Y-72931100D01*
X144596000Y-73381500D01*
G37*
G36*
X144596000Y-74394700D02*
G01*
X144370900Y-74394700D01*
X144370900Y-73831800D01*
X144596000Y-73831800D01*
X144596000Y-74394700D01*
G37*
G36*
X144596000Y-74507300D02*
G01*
X144483400Y-74507300D01*
X144483400Y-74394700D01*
X144596000Y-74394700D01*
X144596000Y-74507300D01*
G37*
G36*
X144708600Y-66176200D02*
G01*
X144370900Y-66176200D01*
X144370900Y-66063600D01*
X144708600Y-66063600D01*
X144708600Y-66176200D01*
G37*
G36*
X144708600Y-71129800D02*
G01*
X144483400Y-71129800D01*
X144483400Y-70904600D01*
X144708600Y-70904600D01*
X144708600Y-71129800D01*
G37*
G36*
X144821200Y-71692700D02*
G01*
X144596000Y-71692700D01*
X144596000Y-71580100D01*
X144821200Y-71580100D01*
X144821200Y-71692700D01*
G37*
G36*
X144821200Y-75182800D02*
G01*
X144708600Y-75182800D01*
X144708600Y-75070200D01*
X144821200Y-75070200D01*
X144821200Y-75182800D01*
G37*
G36*
X144821200Y-76196000D02*
G01*
X144596000Y-76196000D01*
X144596000Y-76083400D01*
X144821200Y-76083400D01*
X144821200Y-76196000D01*
G37*
G36*
X144933800Y-65951000D02*
G01*
X144708600Y-65951000D01*
X144708600Y-65725800D01*
X144933800Y-65725800D01*
X144933800Y-65951000D01*
G37*
G36*
X144933800Y-71242400D02*
G01*
X144708600Y-71242400D01*
X144708600Y-71129800D01*
X144933800Y-71129800D01*
X144933800Y-71242400D01*
G37*
G36*
X144933800Y-71467500D02*
G01*
X144708600Y-71467500D01*
X144708600Y-71355000D01*
X144933800Y-71355000D01*
X144933800Y-71467500D01*
G37*
G36*
X144933800Y-72818500D02*
G01*
X144596000Y-72818500D01*
X144596000Y-71692700D01*
X144933800Y-71692700D01*
X144933800Y-72818500D01*
G37*
G36*
X144933800Y-75070200D02*
G01*
X144708600Y-75070200D01*
X144708600Y-74507300D01*
X144933800Y-74507300D01*
X144933800Y-75070200D01*
G37*
G36*
X144933800Y-76083400D02*
G01*
X144370900Y-76083400D01*
X144370900Y-75970900D01*
X144933800Y-75970900D01*
X144933800Y-76083400D01*
G37*
G36*
X145046400Y-71355000D02*
G01*
X144708600Y-71355000D01*
X144708600Y-71242400D01*
X145046400Y-71242400D01*
X145046400Y-71355000D01*
G37*
G36*
X145046400Y-75970900D02*
G01*
X144370900Y-75970900D01*
X144370900Y-75858300D01*
X145046400Y-75858300D01*
X145046400Y-75970900D01*
G37*
G36*
X145158900Y-75858300D02*
G01*
X144933800Y-75858300D01*
X144933800Y-75182800D01*
X145158900Y-75182800D01*
X145158900Y-75858300D01*
G37*
G36*
X145384100Y-66176200D02*
G01*
X145271500Y-66176200D01*
X145271500Y-65951000D01*
X145384100Y-65951000D01*
X145384100Y-66176200D01*
G37*
G36*
X145384100Y-67527200D02*
G01*
X145158900Y-67527200D01*
X145158900Y-66288700D01*
X145384100Y-66288700D01*
X145384100Y-67527200D01*
G37*
G36*
X145384100Y-67639700D02*
G01*
X145271500Y-67639700D01*
X145271500Y-67527200D01*
X145384100Y-67527200D01*
X145384100Y-67639700D01*
G37*
G36*
X145384100Y-71692700D02*
G01*
X145046400Y-71692700D01*
X145046400Y-71467500D01*
X145384100Y-71467500D01*
X145384100Y-71692700D01*
G37*
G36*
X145384100Y-76083400D02*
G01*
X145271500Y-76083400D01*
X145271500Y-75970900D01*
X145384100Y-75970900D01*
X145384100Y-76083400D01*
G37*
G36*
X145384100Y-77547000D02*
G01*
X145271500Y-77547000D01*
X145271500Y-77434400D01*
X145384100Y-77434400D01*
X145384100Y-77547000D01*
G37*
G36*
X145496700Y-65951000D02*
G01*
X145271500Y-65951000D01*
X145271500Y-65838400D01*
X145496700Y-65838400D01*
X145496700Y-65951000D01*
G37*
G36*
X145496700Y-68090100D02*
G01*
X145158900Y-68090100D01*
X145158900Y-67639700D01*
X145496700Y-67639700D01*
X145496700Y-68090100D01*
G37*
G36*
X145496700Y-77434400D02*
G01*
X145158900Y-77434400D01*
X145158900Y-76083400D01*
X145496700Y-76083400D01*
X145496700Y-77434400D01*
G37*
G36*
X145609300Y-65725800D02*
G01*
X144933800Y-65725800D01*
X144933800Y-65388100D01*
X145609300Y-65388100D01*
X145609300Y-65725800D01*
G37*
G36*
X145609300Y-65838400D02*
G01*
X145271500Y-65838400D01*
X145271500Y-65725800D01*
X145609300Y-65725800D01*
X145609300Y-65838400D01*
G37*
G36*
X145721900Y-68427800D02*
G01*
X145496700Y-68427800D01*
X145496700Y-68202600D01*
X145721900Y-68202600D01*
X145721900Y-68427800D01*
G37*
G36*
X145721900Y-78109900D02*
G01*
X145496700Y-78109900D01*
X145496700Y-77547000D01*
X145721900Y-77547000D01*
X145721900Y-78109900D01*
G37*
G36*
X145834400Y-65388100D02*
G01*
X145384100Y-65388100D01*
X145384100Y-65050300D01*
X145834400Y-65050300D01*
X145834400Y-65388100D01*
G37*
G36*
X145947000Y-70566900D02*
G01*
X145721900Y-70566900D01*
X145721900Y-70341700D01*
X145947000Y-70341700D01*
X145947000Y-70566900D01*
G37*
G36*
X145947000Y-78222500D02*
G01*
X145721900Y-78222500D01*
X145721900Y-78109900D01*
X145947000Y-78109900D01*
X145947000Y-78222500D01*
G37*
G36*
X145947000Y-78447700D02*
G01*
X145721900Y-78447700D01*
X145721900Y-78335100D01*
X145947000Y-78335100D01*
X145947000Y-78447700D01*
G37*
G36*
X146059600Y-68765600D02*
G01*
X145721900Y-68765600D01*
X145721900Y-68540400D01*
X146059600Y-68540400D01*
X146059600Y-68765600D01*
G37*
G36*
X146059600Y-72030500D02*
G01*
X145496700Y-72030500D01*
X145496700Y-71805300D01*
X146059600Y-71805300D01*
X146059600Y-72030500D01*
G37*
G36*
X146059600Y-75633100D02*
G01*
X145496700Y-75633100D01*
X145496700Y-75407900D01*
X146059600Y-75407900D01*
X146059600Y-75633100D01*
G37*
G36*
X146059600Y-78335100D02*
G01*
X145721900Y-78335100D01*
X145721900Y-78222500D01*
X146059600Y-78222500D01*
X146059600Y-78335100D01*
G37*
G36*
X146172200Y-64712600D02*
G01*
X146059600Y-64712600D01*
X146059600Y-64600000D01*
X146172200Y-64600000D01*
X146172200Y-64712600D01*
G37*
G36*
X146172200Y-64937700D02*
G01*
X145947000Y-64937700D01*
X145947000Y-64712600D01*
X146172200Y-64712600D01*
X146172200Y-64937700D01*
G37*
G36*
X146172200Y-78785400D02*
G01*
X146059600Y-78785400D01*
X146059600Y-78672800D01*
X146172200Y-78672800D01*
X146172200Y-78785400D01*
G37*
G36*
X146284800Y-69103300D02*
G01*
X146059600Y-69103300D01*
X146059600Y-68765600D01*
X146284800Y-68765600D01*
X146284800Y-69103300D01*
G37*
G36*
X146284800Y-70904600D02*
G01*
X146059600Y-70904600D01*
X146059600Y-70679500D01*
X146284800Y-70679500D01*
X146284800Y-70904600D01*
G37*
G36*
X146284800Y-78672800D02*
G01*
X146059600Y-78672800D01*
X146059600Y-78447700D01*
X146284800Y-78447700D01*
X146284800Y-78672800D01*
G37*
G36*
X146397400Y-75745700D02*
G01*
X146172200Y-75745700D01*
X146172200Y-75633100D01*
X146397400Y-75633100D01*
X146397400Y-75745700D01*
G37*
G36*
X146397400Y-75970900D02*
G01*
X146172200Y-75970900D01*
X146172200Y-75858300D01*
X146397400Y-75858300D01*
X146397400Y-75970900D01*
G37*
G36*
X146509900Y-72818500D02*
G01*
X145834400Y-72818500D01*
X145834400Y-72706000D01*
X146509900Y-72706000D01*
X146509900Y-72818500D01*
G37*
G36*
X146509900Y-72931100D02*
G01*
X145721900Y-72931100D01*
X145721900Y-72818500D01*
X146509900Y-72818500D01*
X146509900Y-72931100D01*
G37*
G36*
X146509900Y-73043700D02*
G01*
X145834400Y-73043700D01*
X145834400Y-72931100D01*
X146509900Y-72931100D01*
X146509900Y-73043700D01*
G37*
G36*
X146509900Y-75858300D02*
G01*
X146172200Y-75858300D01*
X146172200Y-75745700D01*
X146509900Y-75745700D01*
X146509900Y-75858300D01*
G37*
G36*
X146509900Y-78898000D02*
G01*
X146397400Y-78898000D01*
X146397400Y-78785400D01*
X146509900Y-78785400D01*
X146509900Y-78898000D01*
G37*
G36*
X146509900Y-79123200D02*
G01*
X146397400Y-79123200D01*
X146397400Y-79010600D01*
X146509900Y-79010600D01*
X146509900Y-79123200D01*
G37*
G36*
X146622500Y-79010600D02*
G01*
X146284800Y-79010600D01*
X146284800Y-78898000D01*
X146622500Y-78898000D01*
X146622500Y-79010600D01*
G37*
G36*
X146735100Y-76533800D02*
G01*
X146509900Y-76533800D01*
X146509900Y-75970900D01*
X146735100Y-75970900D01*
X146735100Y-76533800D01*
G37*
G36*
X146847700Y-69441100D02*
G01*
X146397400Y-69441100D01*
X146397400Y-69328500D01*
X146847700Y-69328500D01*
X146847700Y-69441100D01*
G37*
G36*
X146847700Y-79460900D02*
G01*
X146622500Y-79460900D01*
X146622500Y-79123200D01*
X146847700Y-79123200D01*
X146847700Y-79460900D01*
G37*
G36*
X146960300Y-68765600D02*
G01*
X146735100Y-68765600D01*
X146735100Y-68540400D01*
X146960300Y-68540400D01*
X146960300Y-68765600D01*
G37*
G36*
X146960300Y-69215900D02*
G01*
X146397400Y-69215900D01*
X146397400Y-69103300D01*
X146960300Y-69103300D01*
X146960300Y-69215900D01*
G37*
G36*
X146960300Y-69328500D02*
G01*
X146284800Y-69328500D01*
X146284800Y-69215900D01*
X146960300Y-69215900D01*
X146960300Y-69328500D01*
G37*
G36*
X146960300Y-73268900D02*
G01*
X146172200Y-73268900D01*
X146172200Y-73156300D01*
X146960300Y-73156300D01*
X146960300Y-73268900D01*
G37*
G36*
X147072800Y-73381500D02*
G01*
X146172200Y-73381500D01*
X146172200Y-73268900D01*
X147072800Y-73268900D01*
X147072800Y-73381500D01*
G37*
G36*
X147185400Y-71129800D02*
G01*
X146847700Y-71129800D01*
X146847700Y-70904600D01*
X147185400Y-70904600D01*
X147185400Y-71129800D01*
G37*
G36*
X147185400Y-76646400D02*
G01*
X146847700Y-76646400D01*
X146847700Y-76308600D01*
X147185400Y-76308600D01*
X147185400Y-76646400D01*
G37*
G36*
X147185400Y-79686100D02*
G01*
X146847700Y-79686100D01*
X146847700Y-79460900D01*
X147185400Y-79460900D01*
X147185400Y-79686100D01*
G37*
G36*
X147298000Y-69666200D02*
G01*
X147072800Y-69666200D01*
X147072800Y-69441100D01*
X147298000Y-69441100D01*
X147298000Y-69666200D01*
G37*
G36*
X147298000Y-73719200D02*
G01*
X146284800Y-73719200D01*
X146284800Y-73381500D01*
X147298000Y-73381500D01*
X147298000Y-73719200D01*
G37*
G36*
X147410600Y-70566900D02*
G01*
X147298000Y-70566900D01*
X147298000Y-70454300D01*
X147410600Y-70454300D01*
X147410600Y-70566900D01*
G37*
G36*
X147410600Y-70792100D02*
G01*
X147185400Y-70792100D01*
X147185400Y-70679500D01*
X147410600Y-70679500D01*
X147410600Y-70792100D01*
G37*
G36*
X147410600Y-77434400D02*
G01*
X146847700Y-77434400D01*
X146847700Y-76646400D01*
X147410600Y-76646400D01*
X147410600Y-77434400D01*
G37*
G36*
X147410600Y-77772200D02*
G01*
X147072800Y-77772200D01*
X147072800Y-77434400D01*
X147410600Y-77434400D01*
X147410600Y-77772200D01*
G37*
G36*
X147410600Y-80023800D02*
G01*
X147185400Y-80023800D01*
X147185400Y-79686100D01*
X147410600Y-79686100D01*
X147410600Y-80023800D01*
G37*
G36*
X147523200Y-68315200D02*
G01*
X147072800Y-68315200D01*
X147072800Y-68202600D01*
X147523200Y-68202600D01*
X147523200Y-68315200D01*
G37*
G36*
X147523200Y-68427800D02*
G01*
X146960300Y-68427800D01*
X146960300Y-68315200D01*
X147523200Y-68315200D01*
X147523200Y-68427800D01*
G37*
G36*
X147523200Y-68540400D02*
G01*
X147072800Y-68540400D01*
X147072800Y-68427800D01*
X147523200Y-68427800D01*
X147523200Y-68540400D01*
G37*
G36*
X147523200Y-70679500D02*
G01*
X147185400Y-70679500D01*
X147185400Y-70566900D01*
X147523200Y-70566900D01*
X147523200Y-70679500D01*
G37*
G36*
X147635800Y-70341700D02*
G01*
X147410600Y-70341700D01*
X147410600Y-69778800D01*
X147635800Y-69778800D01*
X147635800Y-70341700D01*
G37*
G36*
X147635800Y-70454300D02*
G01*
X147523200Y-70454300D01*
X147523200Y-70341700D01*
X147635800Y-70341700D01*
X147635800Y-70454300D01*
G37*
G36*
X147635800Y-80136400D02*
G01*
X147523200Y-80136400D01*
X147523200Y-80023800D01*
X147635800Y-80023800D01*
X147635800Y-80136400D01*
G37*
G36*
X147635800Y-80361600D02*
G01*
X147523200Y-80361600D01*
X147523200Y-80249000D01*
X147635800Y-80249000D01*
X147635800Y-80361600D01*
G37*
G36*
X147748300Y-73944400D02*
G01*
X146284800Y-73944400D01*
X146284800Y-73719200D01*
X147748300Y-73719200D01*
X147748300Y-73944400D01*
G37*
G36*
X147748300Y-78447700D02*
G01*
X147523200Y-78447700D01*
X147523200Y-78335100D01*
X147748300Y-78335100D01*
X147748300Y-78447700D01*
G37*
G36*
X147748300Y-78672800D02*
G01*
X147410600Y-78672800D01*
X147410600Y-78447700D01*
X147748300Y-78447700D01*
X147748300Y-78672800D01*
G37*
G36*
X147748300Y-80249000D02*
G01*
X147410600Y-80249000D01*
X147410600Y-80136400D01*
X147748300Y-80136400D01*
X147748300Y-80249000D01*
G37*
G36*
X147860900Y-79348300D02*
G01*
X147748300Y-79348300D01*
X147748300Y-79235800D01*
X147860900Y-79235800D01*
X147860900Y-79348300D01*
G37*
G36*
X147973500Y-72368200D02*
G01*
X147748300Y-72368200D01*
X147748300Y-72143000D01*
X147973500Y-72143000D01*
X147973500Y-72368200D01*
G37*
G36*
X147973500Y-78785400D02*
G01*
X147410600Y-78785400D01*
X147410600Y-78672800D01*
X147973500Y-78672800D01*
X147973500Y-78785400D01*
G37*
G36*
X147973500Y-79010600D02*
G01*
X147523200Y-79010600D01*
X147523200Y-78785400D01*
X147973500Y-78785400D01*
X147973500Y-79010600D01*
G37*
G36*
X147973500Y-79235800D02*
G01*
X147748300Y-79235800D01*
X147748300Y-79010600D01*
X147973500Y-79010600D01*
X147973500Y-79235800D01*
G37*
G36*
X147973500Y-80699300D02*
G01*
X147748300Y-80699300D01*
X147748300Y-80361600D01*
X147973500Y-80361600D01*
X147973500Y-80699300D01*
G37*
G36*
X148086100Y-67977500D02*
G01*
X147635800Y-67977500D01*
X147635800Y-67864900D01*
X148086100Y-67864900D01*
X148086100Y-67977500D01*
G37*
G36*
X148086100Y-68202600D02*
G01*
X147635800Y-68202600D01*
X147635800Y-68090100D01*
X148086100Y-68090100D01*
X148086100Y-68202600D01*
G37*
G36*
X148086100Y-74057000D02*
G01*
X146284800Y-74057000D01*
X146284800Y-73944400D01*
X148086100Y-73944400D01*
X148086100Y-74057000D01*
G37*
G36*
X148086100Y-74169500D02*
G01*
X146509900Y-74169500D01*
X146509900Y-74057000D01*
X148086100Y-74057000D01*
X148086100Y-74169500D01*
G37*
G36*
X148086100Y-77209300D02*
G01*
X147860900Y-77209300D01*
X147860900Y-76984100D01*
X148086100Y-76984100D01*
X148086100Y-77209300D01*
G37*
G36*
X148086100Y-77997400D02*
G01*
X147860900Y-77997400D01*
X147860900Y-77547000D01*
X148086100Y-77547000D01*
X148086100Y-77997400D01*
G37*
G36*
X148198700Y-68090100D02*
G01*
X147635800Y-68090100D01*
X147635800Y-67977500D01*
X148198700Y-67977500D01*
X148198700Y-68090100D01*
G37*
G36*
X148311300Y-72706000D02*
G01*
X148086100Y-72706000D01*
X148086100Y-72480800D01*
X148311300Y-72480800D01*
X148311300Y-72706000D01*
G37*
G36*
X148311300Y-74732500D02*
G01*
X146847700Y-74732500D01*
X146847700Y-74507300D01*
X148311300Y-74507300D01*
X148311300Y-74732500D01*
G37*
G36*
X148311300Y-77321900D02*
G01*
X147748300Y-77321900D01*
X147748300Y-77209300D01*
X148311300Y-77209300D01*
X148311300Y-77321900D01*
G37*
G36*
X148311300Y-77547000D02*
G01*
X147635800Y-77547000D01*
X147635800Y-77321900D01*
X148311300Y-77321900D01*
X148311300Y-77547000D01*
G37*
G36*
X148311300Y-80924500D02*
G01*
X147973500Y-80924500D01*
X147973500Y-80699300D01*
X148311300Y-80699300D01*
X148311300Y-80924500D01*
G37*
G36*
X148423800Y-74282100D02*
G01*
X146509900Y-74282100D01*
X146509900Y-74169500D01*
X148423800Y-74169500D01*
X148423800Y-74282100D01*
G37*
G36*
X148536400Y-72931100D02*
G01*
X148311300Y-72931100D01*
X148311300Y-72706000D01*
X148536400Y-72706000D01*
X148536400Y-72931100D01*
G37*
G36*
X148649000Y-74394700D02*
G01*
X146509900Y-74394700D01*
X146509900Y-74282100D01*
X148649000Y-74282100D01*
X148649000Y-74394700D01*
G37*
G36*
X148649000Y-74507300D02*
G01*
X146847700Y-74507300D01*
X146847700Y-74394700D01*
X148649000Y-74394700D01*
X148649000Y-74507300D01*
G37*
G36*
X148649000Y-79010600D02*
G01*
X148311300Y-79010600D01*
X148311300Y-78672800D01*
X148649000Y-78672800D01*
X148649000Y-79010600D01*
G37*
G36*
X148649000Y-79235800D02*
G01*
X148198700Y-79235800D01*
X148198700Y-79010600D01*
X148649000Y-79010600D01*
X148649000Y-79235800D01*
G37*
G36*
X148649000Y-81037100D02*
G01*
X148423800Y-81037100D01*
X148423800Y-80924500D01*
X148649000Y-80924500D01*
X148649000Y-81037100D01*
G37*
G36*
X148649000Y-81149700D02*
G01*
X148311300Y-81149700D01*
X148311300Y-81037100D01*
X148649000Y-81037100D01*
X148649000Y-81149700D01*
G37*
G36*
X148761600Y-73043700D02*
G01*
X148649000Y-73043700D01*
X148649000Y-72931100D01*
X148761600Y-72931100D01*
X148761600Y-73043700D01*
G37*
G36*
X148761600Y-73268900D02*
G01*
X148649000Y-73268900D01*
X148649000Y-73156300D01*
X148761600Y-73156300D01*
X148761600Y-73268900D01*
G37*
G36*
X148761600Y-79798700D02*
G01*
X148536400Y-79798700D01*
X148536400Y-79686100D01*
X148761600Y-79686100D01*
X148761600Y-79798700D01*
G37*
G36*
X148874200Y-73156300D02*
G01*
X148536400Y-73156300D01*
X148536400Y-73043700D01*
X148874200Y-73043700D01*
X148874200Y-73156300D01*
G37*
G36*
X148874200Y-79573500D02*
G01*
X148198700Y-79573500D01*
X148198700Y-79235800D01*
X148874200Y-79235800D01*
X148874200Y-79573500D01*
G37*
G36*
X148874200Y-79686100D02*
G01*
X148423800Y-79686100D01*
X148423800Y-79573500D01*
X148874200Y-79573500D01*
X148874200Y-79686100D01*
G37*
G36*
X148986800Y-81487400D02*
G01*
X148761600Y-81487400D01*
X148761600Y-81262300D01*
X148986800Y-81262300D01*
X148986800Y-81487400D01*
G37*
G36*
X149099300Y-73606600D02*
G01*
X148874200Y-73606600D01*
X148874200Y-73268900D01*
X149099300Y-73268900D01*
X149099300Y-73606600D01*
G37*
G36*
X149099300Y-74282100D02*
G01*
X148874200Y-74282100D01*
X148874200Y-74057000D01*
X149099300Y-74057000D01*
X149099300Y-74282100D01*
G37*
G36*
X149099300Y-77659600D02*
G01*
X148761600Y-77659600D01*
X148761600Y-77209300D01*
X149099300Y-77209300D01*
X149099300Y-77659600D01*
G37*
G36*
X149324500Y-73719200D02*
G01*
X149211900Y-73719200D01*
X149211900Y-73606600D01*
X149324500Y-73606600D01*
X149324500Y-73719200D01*
G37*
G36*
X149324500Y-74057000D02*
G01*
X149211900Y-74057000D01*
X149211900Y-73944400D01*
X149324500Y-73944400D01*
X149324500Y-74057000D01*
G37*
G36*
X149324500Y-77772200D02*
G01*
X148761600Y-77772200D01*
X148761600Y-77659600D01*
X149324500Y-77659600D01*
X149324500Y-77772200D01*
G37*
G36*
X149324500Y-77997400D02*
G01*
X148986800Y-77997400D01*
X148986800Y-77772200D01*
X149324500Y-77772200D01*
X149324500Y-77997400D01*
G37*
G36*
X149437100Y-73944400D02*
G01*
X149099300Y-73944400D01*
X149099300Y-73719200D01*
X149437100Y-73719200D01*
X149437100Y-73944400D01*
G37*
G36*
X149437100Y-78109900D02*
G01*
X148986800Y-78109900D01*
X148986800Y-77997400D01*
X149437100Y-77997400D01*
X149437100Y-78109900D01*
G37*
G36*
X149437100Y-78447700D02*
G01*
X149211900Y-78447700D01*
X149211900Y-78109900D01*
X149437100Y-78109900D01*
X149437100Y-78447700D01*
G37*
G36*
X149549700Y-79123200D02*
G01*
X149437100Y-79123200D01*
X149437100Y-79010600D01*
X149549700Y-79010600D01*
X149549700Y-79123200D01*
G37*
G36*
X149549700Y-80023800D02*
G01*
X149437100Y-80023800D01*
X149437100Y-79911300D01*
X149549700Y-79911300D01*
X149549700Y-80023800D01*
G37*
G36*
X149662300Y-73606600D02*
G01*
X149437100Y-73606600D01*
X149437100Y-73268900D01*
X149662300Y-73268900D01*
X149662300Y-73606600D01*
G37*
G36*
X149662300Y-76308600D02*
G01*
X149211900Y-76308600D01*
X149211900Y-76083400D01*
X149662300Y-76083400D01*
X149662300Y-76308600D01*
G37*
G36*
X149662300Y-79460900D02*
G01*
X149324500Y-79460900D01*
X149324500Y-79123200D01*
X149662300Y-79123200D01*
X149662300Y-79460900D01*
G37*
G36*
X149662300Y-79911300D02*
G01*
X149324500Y-79911300D01*
X149324500Y-79798700D01*
X149662300Y-79798700D01*
X149662300Y-79911300D01*
G37*
G36*
X149774800Y-77321900D02*
G01*
X149549700Y-77321900D01*
X149549700Y-77209300D01*
X149774800Y-77209300D01*
X149774800Y-77321900D01*
G37*
G36*
X149887400Y-76083400D02*
G01*
X149211900Y-76083400D01*
X149211900Y-75970900D01*
X149887400Y-75970900D01*
X149887400Y-76083400D01*
G37*
G36*
X149887400Y-77772200D02*
G01*
X149437100Y-77772200D01*
X149437100Y-77321900D01*
X149887400Y-77321900D01*
X149887400Y-77772200D01*
G37*
G36*
X149887400Y-79686100D02*
G01*
X149099300Y-79686100D01*
X149099300Y-79460900D01*
X149887400Y-79460900D01*
X149887400Y-79686100D01*
G37*
G36*
X149887400Y-79798700D02*
G01*
X149211900Y-79798700D01*
X149211900Y-79686100D01*
X149887400Y-79686100D01*
X149887400Y-79798700D01*
G37*
G36*
X150225200Y-75295400D02*
G01*
X149774800Y-75295400D01*
X149774800Y-75070200D01*
X150225200Y-75070200D01*
X150225200Y-75295400D01*
G37*
G36*
X150450300Y-75633100D02*
G01*
X149549700Y-75633100D01*
X149549700Y-75295400D01*
X150450300Y-75295400D01*
X150450300Y-75633100D01*
G37*
G36*
X150450300Y-77321900D02*
G01*
X150225200Y-77321900D01*
X150225200Y-77209300D01*
X150450300Y-77209300D01*
X150450300Y-77321900D01*
G37*
G36*
X150562900Y-73606600D02*
G01*
X150337700Y-73606600D01*
X150337700Y-73268900D01*
X150562900Y-73268900D01*
X150562900Y-73606600D01*
G37*
G36*
X150562900Y-75970900D02*
G01*
X149437100Y-75970900D01*
X149437100Y-75633100D01*
X150562900Y-75633100D01*
X150562900Y-75970900D01*
G37*
G36*
X150562900Y-77772200D02*
G01*
X150112600Y-77772200D01*
X150112600Y-77321900D01*
X150562900Y-77321900D01*
X150562900Y-77772200D01*
G37*
G36*
X150562900Y-79123200D02*
G01*
X150450300Y-79123200D01*
X150450300Y-79010600D01*
X150562900Y-79010600D01*
X150562900Y-79123200D01*
G37*
G36*
X150562900Y-80023800D02*
G01*
X150450300Y-80023800D01*
X150450300Y-79911300D01*
X150562900Y-79911300D01*
X150562900Y-80023800D01*
G37*
G36*
X150675500Y-79460900D02*
G01*
X150337700Y-79460900D01*
X150337700Y-79123200D01*
X150675500Y-79123200D01*
X150675500Y-79460900D01*
G37*
G36*
X150675500Y-79911300D02*
G01*
X150337700Y-79911300D01*
X150337700Y-79798700D01*
X150675500Y-79798700D01*
X150675500Y-79911300D01*
G37*
G36*
X150788100Y-73719200D02*
G01*
X150675500Y-73719200D01*
X150675500Y-73606600D01*
X150788100Y-73606600D01*
X150788100Y-73719200D01*
G37*
G36*
X150788100Y-74057000D02*
G01*
X150675500Y-74057000D01*
X150675500Y-73944400D01*
X150788100Y-73944400D01*
X150788100Y-74057000D01*
G37*
G36*
X150788100Y-76083400D02*
G01*
X150112600Y-76083400D01*
X150112600Y-75970900D01*
X150788100Y-75970900D01*
X150788100Y-76083400D01*
G37*
G36*
X150788100Y-76308600D02*
G01*
X150337700Y-76308600D01*
X150337700Y-76083400D01*
X150788100Y-76083400D01*
X150788100Y-76308600D01*
G37*
G36*
X150788100Y-78447700D02*
G01*
X150562900Y-78447700D01*
X150562900Y-77997400D01*
X150788100Y-77997400D01*
X150788100Y-78447700D01*
G37*
G36*
X150788100Y-79798700D02*
G01*
X150225200Y-79798700D01*
X150225200Y-79686100D01*
X150788100Y-79686100D01*
X150788100Y-79798700D01*
G37*
G36*
X150900700Y-73944400D02*
G01*
X150562900Y-73944400D01*
X150562900Y-73719200D01*
X150900700Y-73719200D01*
X150900700Y-73944400D01*
G37*
G36*
X150900700Y-79686100D02*
G01*
X150112600Y-79686100D01*
X150112600Y-79460900D01*
X150900700Y-79460900D01*
X150900700Y-79686100D01*
G37*
G36*
X150900700Y-81600000D02*
G01*
X149099300Y-81600000D01*
X149099300Y-81487400D01*
X150900700Y-81487400D01*
X150900700Y-81600000D01*
G37*
G36*
X151013200Y-77997400D02*
G01*
X150675500Y-77997400D01*
X150675500Y-77772200D01*
X151013200Y-77772200D01*
X151013200Y-77997400D01*
G37*
G36*
X151125800Y-73381500D02*
G01*
X151013200Y-73381500D01*
X151013200Y-73268900D01*
X151125800Y-73268900D01*
X151125800Y-73381500D01*
G37*
G36*
X151125800Y-73606600D02*
G01*
X151013200Y-73606600D01*
X151013200Y-73494000D01*
X151125800Y-73494000D01*
X151125800Y-73606600D01*
G37*
G36*
X151125800Y-74282100D02*
G01*
X150900700Y-74282100D01*
X150900700Y-74057000D01*
X151125800Y-74057000D01*
X151125800Y-74282100D01*
G37*
G36*
X151125800Y-77321900D02*
G01*
X151013200Y-77321900D01*
X151013200Y-77209300D01*
X151125800Y-77209300D01*
X151125800Y-77321900D01*
G37*
G36*
X151238400Y-73494000D02*
G01*
X151013200Y-73494000D01*
X151013200Y-73381500D01*
X151238400Y-73381500D01*
X151238400Y-73494000D01*
G37*
G36*
X151238400Y-77659600D02*
G01*
X150900700Y-77659600D01*
X150900700Y-77321900D01*
X151238400Y-77321900D01*
X151238400Y-77659600D01*
G37*
G36*
X151238400Y-77772200D02*
G01*
X150675500Y-77772200D01*
X150675500Y-77659600D01*
X151238400Y-77659600D01*
X151238400Y-77772200D01*
G37*
G36*
X151238400Y-81487400D02*
G01*
X151013200Y-81487400D01*
X151013200Y-81262300D01*
X151238400Y-81262300D01*
X151238400Y-81487400D01*
G37*
G36*
X151351000Y-73043700D02*
G01*
X151238400Y-73043700D01*
X151238400Y-72931100D01*
X151351000Y-72931100D01*
X151351000Y-73043700D01*
G37*
G36*
X151351000Y-73268900D02*
G01*
X151238400Y-73268900D01*
X151238400Y-73156300D01*
X151351000Y-73156300D01*
X151351000Y-73268900D01*
G37*
G36*
X151463600Y-73156300D02*
G01*
X151125800Y-73156300D01*
X151125800Y-73043700D01*
X151463600Y-73043700D01*
X151463600Y-73156300D01*
G37*
G36*
X151576200Y-79010600D02*
G01*
X151351000Y-79010600D01*
X151351000Y-78672800D01*
X151576200Y-78672800D01*
X151576200Y-79010600D01*
G37*
G36*
X151576200Y-79798700D02*
G01*
X151238400Y-79798700D01*
X151238400Y-79573500D01*
X151576200Y-79573500D01*
X151576200Y-79798700D01*
G37*
G36*
X151688700Y-72931100D02*
G01*
X151463600Y-72931100D01*
X151463600Y-72706000D01*
X151688700Y-72706000D01*
X151688700Y-72931100D01*
G37*
G36*
X151688700Y-81149700D02*
G01*
X151351000Y-81149700D01*
X151351000Y-80924500D01*
X151688700Y-80924500D01*
X151688700Y-81149700D01*
G37*
G36*
X151801300Y-67864900D02*
G01*
X148198700Y-67864900D01*
X148198700Y-67639700D01*
X151801300Y-67639700D01*
X151801300Y-67864900D01*
G37*
G36*
X151801300Y-79235800D02*
G01*
X151351000Y-79235800D01*
X151351000Y-79010600D01*
X151801300Y-79010600D01*
X151801300Y-79235800D01*
G37*
G36*
X151801300Y-79573500D02*
G01*
X151238400Y-79573500D01*
X151238400Y-79235800D01*
X151801300Y-79235800D01*
X151801300Y-79573500D01*
G37*
G36*
X151913900Y-80699300D02*
G01*
X151801300Y-80699300D01*
X151801300Y-80586800D01*
X151913900Y-80586800D01*
X151913900Y-80699300D01*
G37*
G36*
X152026500Y-72480800D02*
G01*
X151801300Y-72480800D01*
X151801300Y-72368200D01*
X152026500Y-72368200D01*
X152026500Y-72480800D01*
G37*
G36*
X152026500Y-72593400D02*
G01*
X151688700Y-72593400D01*
X151688700Y-72480800D01*
X152026500Y-72480800D01*
X152026500Y-72593400D01*
G37*
G36*
X152026500Y-72706000D02*
G01*
X151801300Y-72706000D01*
X151801300Y-72593400D01*
X152026500Y-72593400D01*
X152026500Y-72706000D01*
G37*
G36*
X152026500Y-80924500D02*
G01*
X151688700Y-80924500D01*
X151688700Y-80699300D01*
X152026500Y-80699300D01*
X152026500Y-80924500D01*
G37*
G36*
X152139100Y-77209300D02*
G01*
X151913900Y-77209300D01*
X151913900Y-76984100D01*
X152139100Y-76984100D01*
X152139100Y-77209300D01*
G37*
G36*
X152139100Y-77997400D02*
G01*
X151913900Y-77997400D01*
X151913900Y-77547000D01*
X152139100Y-77547000D01*
X152139100Y-77997400D01*
G37*
G36*
X152251700Y-79235800D02*
G01*
X152026500Y-79235800D01*
X152026500Y-79010600D01*
X152251700Y-79010600D01*
X152251700Y-79235800D01*
G37*
G36*
X152251700Y-79348300D02*
G01*
X152139100Y-79348300D01*
X152139100Y-79235800D01*
X152251700Y-79235800D01*
X152251700Y-79348300D01*
G37*
G36*
X152364200Y-72368200D02*
G01*
X152026500Y-72368200D01*
X152026500Y-72143000D01*
X152364200Y-72143000D01*
X152364200Y-72368200D01*
G37*
G36*
X152364200Y-77321900D02*
G01*
X151688700Y-77321900D01*
X151688700Y-77209300D01*
X152364200Y-77209300D01*
X152364200Y-77321900D01*
G37*
G36*
X152364200Y-77434400D02*
G01*
X151576200Y-77434400D01*
X151576200Y-77321900D01*
X152364200Y-77321900D01*
X152364200Y-77434400D01*
G37*
G36*
X152364200Y-77547000D02*
G01*
X151688700Y-77547000D01*
X151688700Y-77434400D01*
X152364200Y-77434400D01*
X152364200Y-77547000D01*
G37*
G36*
X152364200Y-80586800D02*
G01*
X152026500Y-80586800D01*
X152026500Y-80361600D01*
X152364200Y-80361600D01*
X152364200Y-80586800D01*
G37*
G36*
X152476800Y-68202600D02*
G01*
X151913900Y-68202600D01*
X151913900Y-67864900D01*
X152476800Y-67864900D01*
X152476800Y-68202600D01*
G37*
G36*
X152476800Y-79010600D02*
G01*
X152026500Y-79010600D01*
X152026500Y-78898000D01*
X152476800Y-78898000D01*
X152476800Y-79010600D01*
G37*
G36*
X152476800Y-80361600D02*
G01*
X152364200Y-80361600D01*
X152364200Y-80249000D01*
X152476800Y-80249000D01*
X152476800Y-80361600D01*
G37*
G36*
X152589400Y-70341700D02*
G01*
X152364200Y-70341700D01*
X152364200Y-69778800D01*
X152589400Y-69778800D01*
X152589400Y-70341700D01*
G37*
G36*
X152589400Y-78672800D02*
G01*
X152251700Y-78672800D01*
X152251700Y-78335100D01*
X152589400Y-78335100D01*
X152589400Y-78672800D01*
G37*
G36*
X152589400Y-78898000D02*
G01*
X152026500Y-78898000D01*
X152026500Y-78672800D01*
X152589400Y-78672800D01*
X152589400Y-78898000D01*
G37*
G36*
X152589400Y-80249000D02*
G01*
X152364200Y-80249000D01*
X152364200Y-80023800D01*
X152589400Y-80023800D01*
X152589400Y-80249000D01*
G37*
G36*
X152814600Y-70792100D02*
G01*
X152589400Y-70792100D01*
X152589400Y-70454300D01*
X152814600Y-70454300D01*
X152814600Y-70792100D01*
G37*
G36*
X152814600Y-77772200D02*
G01*
X152589400Y-77772200D01*
X152589400Y-77434400D01*
X152814600Y-77434400D01*
X152814600Y-77772200D01*
G37*
G36*
X152814600Y-77884800D02*
G01*
X152702000Y-77884800D01*
X152702000Y-77772200D01*
X152814600Y-77772200D01*
X152814600Y-77884800D01*
G37*
G36*
X152814600Y-79798700D02*
G01*
X152702000Y-79798700D01*
X152702000Y-79686100D01*
X152814600Y-79686100D01*
X152814600Y-79798700D01*
G37*
G36*
X152814600Y-80023800D02*
G01*
X152589400Y-80023800D01*
X152589400Y-79911300D01*
X152814600Y-79911300D01*
X152814600Y-80023800D01*
G37*
G36*
X152927200Y-68315200D02*
G01*
X152476800Y-68315200D01*
X152476800Y-68202600D01*
X152927200Y-68202600D01*
X152927200Y-68315200D01*
G37*
G36*
X152927200Y-68540400D02*
G01*
X152476800Y-68540400D01*
X152476800Y-68427800D01*
X152927200Y-68427800D01*
X152927200Y-68540400D01*
G37*
G36*
X152927200Y-69666200D02*
G01*
X152589400Y-69666200D01*
X152589400Y-69441100D01*
X152927200Y-69441100D01*
X152927200Y-69666200D01*
G37*
G36*
X152927200Y-79911300D02*
G01*
X152589400Y-79911300D01*
X152589400Y-79798700D01*
X152927200Y-79798700D01*
X152927200Y-79911300D01*
G37*
G36*
X153039700Y-68427800D02*
G01*
X152476800Y-68427800D01*
X152476800Y-68315200D01*
X153039700Y-68315200D01*
X153039700Y-68427800D01*
G37*
G36*
X153152300Y-71129800D02*
G01*
X152814600Y-71129800D01*
X152814600Y-70904600D01*
X153152300Y-70904600D01*
X153152300Y-71129800D01*
G37*
G36*
X153152300Y-74732500D02*
G01*
X151688700Y-74732500D01*
X151688700Y-74507300D01*
X153152300Y-74507300D01*
X153152300Y-74732500D01*
G37*
G36*
X153152300Y-76421200D02*
G01*
X152927200Y-76421200D01*
X152927200Y-76308600D01*
X153152300Y-76308600D01*
X153152300Y-76421200D01*
G37*
G36*
X153152300Y-76646400D02*
G01*
X152814600Y-76646400D01*
X152814600Y-76421200D01*
X153152300Y-76421200D01*
X153152300Y-76646400D01*
G37*
G36*
X153152300Y-77434400D02*
G01*
X152589400Y-77434400D01*
X152589400Y-76646400D01*
X153152300Y-76646400D01*
X153152300Y-77434400D01*
G37*
G36*
X153152300Y-79686100D02*
G01*
X152927200Y-79686100D01*
X152927200Y-79460900D01*
X153152300Y-79460900D01*
X153152300Y-79686100D01*
G37*
G36*
X153264900Y-68765600D02*
G01*
X153039700Y-68765600D01*
X153039700Y-68540400D01*
X153264900Y-68540400D01*
X153264900Y-68765600D01*
G37*
G36*
X153264900Y-74507300D02*
G01*
X151351000Y-74507300D01*
X151351000Y-74394700D01*
X153264900Y-74394700D01*
X153264900Y-74507300D01*
G37*
G36*
X153377500Y-71355000D02*
G01*
X153152300Y-71355000D01*
X153152300Y-71129800D01*
X153377500Y-71129800D01*
X153377500Y-71355000D01*
G37*
G36*
X153490100Y-74282100D02*
G01*
X151688700Y-74282100D01*
X151688700Y-74169500D01*
X153490100Y-74169500D01*
X153490100Y-74282100D01*
G37*
G36*
X153490100Y-74394700D02*
G01*
X151351000Y-74394700D01*
X151351000Y-74282100D01*
X153490100Y-74282100D01*
X153490100Y-74394700D01*
G37*
G36*
X153490100Y-76533800D02*
G01*
X153264900Y-76533800D01*
X153264900Y-75970900D01*
X153490100Y-75970900D01*
X153490100Y-76533800D01*
G37*
G36*
X153490100Y-79348300D02*
G01*
X153152300Y-79348300D01*
X153152300Y-79123200D01*
X153490100Y-79123200D01*
X153490100Y-79348300D01*
G37*
G36*
X153602600Y-69215900D02*
G01*
X153152300Y-69215900D01*
X153152300Y-69103300D01*
X153602600Y-69103300D01*
X153602600Y-69215900D01*
G37*
G36*
X153602600Y-69441100D02*
G01*
X153264900Y-69441100D01*
X153264900Y-69328500D01*
X153602600Y-69328500D01*
X153602600Y-69441100D01*
G37*
G36*
X153602600Y-74169500D02*
G01*
X151913900Y-74169500D01*
X151913900Y-74057000D01*
X153602600Y-74057000D01*
X153602600Y-74169500D01*
G37*
G36*
X153715200Y-69328500D02*
G01*
X153039700Y-69328500D01*
X153039700Y-69215900D01*
X153715200Y-69215900D01*
X153715200Y-69328500D01*
G37*
G36*
X153715200Y-73719200D02*
G01*
X152702000Y-73719200D01*
X152702000Y-73494000D01*
X153715200Y-73494000D01*
X153715200Y-73719200D01*
G37*
G36*
X153715200Y-73944400D02*
G01*
X152251700Y-73944400D01*
X152251700Y-73719200D01*
X153715200Y-73719200D01*
X153715200Y-73944400D01*
G37*
G36*
X153715200Y-74057000D02*
G01*
X152026500Y-74057000D01*
X152026500Y-73944400D01*
X153715200Y-73944400D01*
X153715200Y-74057000D01*
G37*
G36*
X153715200Y-79123200D02*
G01*
X153490100Y-79123200D01*
X153490100Y-78785400D01*
X153715200Y-78785400D01*
X153715200Y-79123200D01*
G37*
G36*
X153827800Y-73494000D02*
G01*
X152702000Y-73494000D01*
X152702000Y-73381500D01*
X153827800Y-73381500D01*
X153827800Y-73494000D01*
G37*
G36*
X153827800Y-75745700D02*
G01*
X153602600Y-75745700D01*
X153602600Y-75633100D01*
X153827800Y-75633100D01*
X153827800Y-75745700D01*
G37*
G36*
X153827800Y-75970900D02*
G01*
X153490100Y-75970900D01*
X153490100Y-75858300D01*
X153827800Y-75858300D01*
X153827800Y-75970900D01*
G37*
G36*
X153940400Y-64712600D02*
G01*
X153827800Y-64712600D01*
X153827800Y-64600000D01*
X153940400Y-64600000D01*
X153940400Y-64712600D01*
G37*
G36*
X153940400Y-64937700D02*
G01*
X153827800Y-64937700D01*
X153827800Y-64825200D01*
X153940400Y-64825200D01*
X153940400Y-64937700D01*
G37*
G36*
X153940400Y-69103300D02*
G01*
X153715200Y-69103300D01*
X153715200Y-68765600D01*
X153940400Y-68765600D01*
X153940400Y-69103300D01*
G37*
G36*
X153940400Y-71017200D02*
G01*
X153827800Y-71017200D01*
X153827800Y-70904600D01*
X153940400Y-70904600D01*
X153940400Y-71017200D01*
G37*
G36*
X153940400Y-73268900D02*
G01*
X153039700Y-73268900D01*
X153039700Y-73156300D01*
X153940400Y-73156300D01*
X153940400Y-73268900D01*
G37*
G36*
X153940400Y-73381500D02*
G01*
X152927200Y-73381500D01*
X152927200Y-73268900D01*
X153940400Y-73268900D01*
X153940400Y-73381500D01*
G37*
G36*
X153940400Y-75858300D02*
G01*
X153490100Y-75858300D01*
X153490100Y-75745700D01*
X153940400Y-75745700D01*
X153940400Y-75858300D01*
G37*
G36*
X153940400Y-78560300D02*
G01*
X153715200Y-78560300D01*
X153715200Y-78447700D01*
X153940400Y-78447700D01*
X153940400Y-78560300D01*
G37*
G36*
X153940400Y-78785400D02*
G01*
X153827800Y-78785400D01*
X153827800Y-78672800D01*
X153940400Y-78672800D01*
X153940400Y-78785400D01*
G37*
G36*
X154053000Y-64825200D02*
G01*
X153715200Y-64825200D01*
X153715200Y-64712600D01*
X154053000Y-64712600D01*
X154053000Y-64825200D01*
G37*
G36*
X154053000Y-70904600D02*
G01*
X153827800Y-70904600D01*
X153827800Y-70679500D01*
X154053000Y-70679500D01*
X154053000Y-70904600D01*
G37*
G36*
X154053000Y-78672800D02*
G01*
X153715200Y-78672800D01*
X153715200Y-78560300D01*
X154053000Y-78560300D01*
X154053000Y-78672800D01*
G37*
G36*
X154165600Y-72818500D02*
G01*
X153490100Y-72818500D01*
X153490100Y-72706000D01*
X154165600Y-72706000D01*
X154165600Y-72818500D01*
G37*
G36*
X154278100Y-68765600D02*
G01*
X153940400Y-68765600D01*
X153940400Y-68540400D01*
X154278100Y-68540400D01*
X154278100Y-68765600D01*
G37*
G36*
X154278100Y-72931100D02*
G01*
X153377500Y-72931100D01*
X153377500Y-72818500D01*
X154278100Y-72818500D01*
X154278100Y-72931100D01*
G37*
G36*
X154278100Y-73043700D02*
G01*
X153490100Y-73043700D01*
X153490100Y-72931100D01*
X154278100Y-72931100D01*
X154278100Y-73043700D01*
G37*
G36*
X154278100Y-78447700D02*
G01*
X154053000Y-78447700D01*
X154053000Y-78109900D01*
X154278100Y-78109900D01*
X154278100Y-78447700D01*
G37*
G36*
X154503300Y-65388100D02*
G01*
X154165600Y-65388100D01*
X154165600Y-65050300D01*
X154503300Y-65050300D01*
X154503300Y-65388100D01*
G37*
G36*
X154503300Y-68427800D02*
G01*
X154278100Y-68427800D01*
X154278100Y-68202600D01*
X154503300Y-68202600D01*
X154503300Y-68427800D01*
G37*
G36*
X154503300Y-70454300D02*
G01*
X154390700Y-70454300D01*
X154390700Y-70341700D01*
X154503300Y-70341700D01*
X154503300Y-70454300D01*
G37*
G36*
X154503300Y-70566900D02*
G01*
X154278100Y-70566900D01*
X154278100Y-70454300D01*
X154503300Y-70454300D01*
X154503300Y-70566900D01*
G37*
G36*
X154503300Y-70679500D02*
G01*
X154390700Y-70679500D01*
X154390700Y-70566900D01*
X154503300Y-70566900D01*
X154503300Y-70679500D01*
G37*
G36*
X154503300Y-72030500D02*
G01*
X153940400Y-72030500D01*
X153940400Y-71805300D01*
X154503300Y-71805300D01*
X154503300Y-72030500D01*
G37*
G36*
X154503300Y-75633100D02*
G01*
X153940400Y-75633100D01*
X153940400Y-75407900D01*
X154503300Y-75407900D01*
X154503300Y-75633100D01*
G37*
G36*
X154503300Y-77997400D02*
G01*
X154278100Y-77997400D01*
X154278100Y-77547000D01*
X154503300Y-77547000D01*
X154503300Y-77997400D01*
G37*
G36*
X154503300Y-78109900D02*
G01*
X154390700Y-78109900D01*
X154390700Y-77997400D01*
X154503300Y-77997400D01*
X154503300Y-78109900D01*
G37*
G36*
X154728500Y-66288700D02*
G01*
X154503300Y-66288700D01*
X154503300Y-66176200D01*
X154728500Y-66176200D01*
X154728500Y-66288700D01*
G37*
G36*
X154841100Y-66176200D02*
G01*
X154503300Y-66176200D01*
X154503300Y-65725800D01*
X154841100Y-65725800D01*
X154841100Y-66176200D01*
G37*
G36*
X154841100Y-67527200D02*
G01*
X154728500Y-67527200D01*
X154728500Y-67414600D01*
X154841100Y-67414600D01*
X154841100Y-67527200D01*
G37*
G36*
X154841100Y-68090100D02*
G01*
X154503300Y-68090100D01*
X154503300Y-67639700D01*
X154841100Y-67639700D01*
X154841100Y-68090100D01*
G37*
G36*
X154841100Y-71692700D02*
G01*
X154615900Y-71692700D01*
X154615900Y-71467500D01*
X154841100Y-71467500D01*
X154841100Y-71692700D01*
G37*
G36*
X154841100Y-77547000D02*
G01*
X154615900Y-77547000D01*
X154615900Y-76083400D01*
X154841100Y-76083400D01*
X154841100Y-77547000D01*
G37*
G36*
X154953600Y-65725800D02*
G01*
X154278100Y-65725800D01*
X154278100Y-65613200D01*
X154953600Y-65613200D01*
X154953600Y-65725800D01*
G37*
G36*
X154953600Y-66851700D02*
G01*
X154615900Y-66851700D01*
X154615900Y-66288700D01*
X154953600Y-66288700D01*
X154953600Y-66851700D01*
G37*
G36*
X154953600Y-67414600D02*
G01*
X154615900Y-67414600D01*
X154615900Y-66964200D01*
X154953600Y-66964200D01*
X154953600Y-67414600D01*
G37*
G36*
X155066200Y-65613200D02*
G01*
X154278100Y-65613200D01*
X154278100Y-65388100D01*
X155066200Y-65388100D01*
X155066200Y-65613200D01*
G37*
G36*
X155066200Y-75858300D02*
G01*
X154841100Y-75858300D01*
X154841100Y-75070200D01*
X155066200Y-75070200D01*
X155066200Y-75858300D01*
G37*
G36*
X155178800Y-71242400D02*
G01*
X154953600Y-71242400D01*
X154953600Y-71129800D01*
X155178800Y-71129800D01*
X155178800Y-71242400D01*
G37*
G36*
X155178800Y-71467500D02*
G01*
X155066200Y-71467500D01*
X155066200Y-71355000D01*
X155178800Y-71355000D01*
X155178800Y-71467500D01*
G37*
G36*
X155291400Y-65951000D02*
G01*
X155066200Y-65951000D01*
X155066200Y-65725800D01*
X155291400Y-65725800D01*
X155291400Y-65951000D01*
G37*
G36*
X155291400Y-71355000D02*
G01*
X154953600Y-71355000D01*
X154953600Y-71242400D01*
X155291400Y-71242400D01*
X155291400Y-71355000D01*
G37*
G36*
X155291400Y-74619900D02*
G01*
X155066200Y-74619900D01*
X155066200Y-74507300D01*
X155291400Y-74507300D01*
X155291400Y-74619900D01*
G37*
G36*
X155404000Y-71580100D02*
G01*
X155178800Y-71580100D01*
X155178800Y-71467500D01*
X155404000Y-71467500D01*
X155404000Y-71580100D01*
G37*
G36*
X155404000Y-72818500D02*
G01*
X155066200Y-72818500D01*
X155066200Y-71580100D01*
X155404000Y-71580100D01*
X155404000Y-72818500D01*
G37*
G36*
X155404000Y-72931100D02*
G01*
X155178800Y-72931100D01*
X155178800Y-72818500D01*
X155404000Y-72818500D01*
X155404000Y-72931100D01*
G37*
G36*
X155404000Y-75070200D02*
G01*
X155066200Y-75070200D01*
X155066200Y-74619900D01*
X155404000Y-74619900D01*
X155404000Y-75070200D01*
G37*
G36*
X155516600Y-66063600D02*
G01*
X155291400Y-66063600D01*
X155291400Y-65951000D01*
X155516600Y-65951000D01*
X155516600Y-66063600D01*
G37*
G36*
X155516600Y-66288700D02*
G01*
X155291400Y-66288700D01*
X155291400Y-66176200D01*
X155516600Y-66176200D01*
X155516600Y-66288700D01*
G37*
G36*
X155516600Y-71129800D02*
G01*
X155291400Y-71129800D01*
X155291400Y-70792100D01*
X155516600Y-70792100D01*
X155516600Y-71129800D01*
G37*
G36*
X155516600Y-74507300D02*
G01*
X155404000Y-74507300D01*
X155404000Y-74394700D01*
X155516600Y-74394700D01*
X155516600Y-74507300D01*
G37*
G36*
X155516600Y-75970900D02*
G01*
X154841100Y-75970900D01*
X154841100Y-75858300D01*
X155516600Y-75858300D01*
X155516600Y-75970900D01*
G37*
G36*
X155516600Y-76196000D02*
G01*
X155066200Y-76196000D01*
X155066200Y-76083400D01*
X155516600Y-76083400D01*
X155516600Y-76196000D01*
G37*
G36*
X155629100Y-66176200D02*
G01*
X155291400Y-66176200D01*
X155291400Y-66063600D01*
X155629100Y-66063600D01*
X155629100Y-66176200D01*
G37*
G36*
X155629100Y-73043700D02*
G01*
X155404000Y-73043700D01*
X155404000Y-72931100D01*
X155629100Y-72931100D01*
X155629100Y-73043700D01*
G37*
G36*
X155629100Y-73268900D02*
G01*
X155291400Y-73268900D01*
X155291400Y-73043700D01*
X155629100Y-73043700D01*
X155629100Y-73268900D01*
G37*
G36*
X155629100Y-73381500D02*
G01*
X155404000Y-73381500D01*
X155404000Y-73268900D01*
X155629100Y-73268900D01*
X155629100Y-73381500D01*
G37*
G36*
X155629100Y-74394700D02*
G01*
X155291400Y-74394700D01*
X155291400Y-73831800D01*
X155629100Y-73831800D01*
X155629100Y-74394700D01*
G37*
G36*
X155629100Y-76083400D02*
G01*
X155066200Y-76083400D01*
X155066200Y-75970900D01*
X155629100Y-75970900D01*
X155629100Y-76083400D01*
G37*
G36*
X155741700Y-75633100D02*
G01*
X155629100Y-75633100D01*
X155629100Y-75520500D01*
X155741700Y-75520500D01*
X155741700Y-75633100D01*
G37*
G36*
X155854300Y-66626500D02*
G01*
X155629100Y-66626500D01*
X155629100Y-66288700D01*
X155854300Y-66288700D01*
X155854300Y-66626500D01*
G37*
G36*
X155854300Y-70792100D02*
G01*
X155629100Y-70792100D01*
X155629100Y-70566900D01*
X155854300Y-70566900D01*
X155854300Y-70792100D01*
G37*
G36*
X155854300Y-72706000D02*
G01*
X155741700Y-72706000D01*
X155741700Y-72593400D01*
X155854300Y-72593400D01*
X155854300Y-72706000D01*
G37*
G36*
X155854300Y-72931100D02*
G01*
X155629100Y-72931100D01*
X155629100Y-72706000D01*
X155854300Y-72706000D01*
X155854300Y-72931100D01*
G37*
G36*
X155854300Y-75858300D02*
G01*
X155629100Y-75858300D01*
X155629100Y-75633100D01*
X155854300Y-75633100D01*
X155854300Y-75858300D01*
G37*
G36*
X156079500Y-70454300D02*
G01*
X155854300Y-70454300D01*
X155854300Y-70004000D01*
X156079500Y-70004000D01*
X156079500Y-70454300D01*
G37*
G36*
X156192100Y-66851700D02*
G01*
X155854300Y-66851700D01*
X155854300Y-66626500D01*
X156192100Y-66626500D01*
X156192100Y-66851700D01*
G37*
G36*
X156192100Y-75520500D02*
G01*
X155854300Y-75520500D01*
X155854300Y-75295400D01*
X156192100Y-75295400D01*
X156192100Y-75520500D01*
G37*
G36*
X156304600Y-67076800D02*
G01*
X156079500Y-67076800D01*
X156079500Y-66964200D01*
X156304600Y-66964200D01*
X156304600Y-67076800D01*
G37*
G36*
X156304600Y-67527200D02*
G01*
X156079500Y-67527200D01*
X156079500Y-67414600D01*
X156304600Y-67414600D01*
X156304600Y-67527200D01*
G37*
G36*
X156304600Y-69441100D02*
G01*
X156079500Y-69441100D01*
X156079500Y-69328500D01*
X156304600Y-69328500D01*
X156304600Y-69441100D01*
G37*
G36*
X156304600Y-72368200D02*
G01*
X155966900Y-72368200D01*
X155966900Y-72255600D01*
X156304600Y-72255600D01*
X156304600Y-72368200D01*
G37*
G36*
X156304600Y-72480800D02*
G01*
X155854300Y-72480800D01*
X155854300Y-72368200D01*
X156304600Y-72368200D01*
X156304600Y-72480800D01*
G37*
G36*
X156304600Y-72593400D02*
G01*
X155966900Y-72593400D01*
X155966900Y-72480800D01*
X156304600Y-72480800D01*
X156304600Y-72593400D01*
G37*
G36*
X156417200Y-67414600D02*
G01*
X156079500Y-67414600D01*
X156079500Y-67076800D01*
X156417200Y-67076800D01*
X156417200Y-67414600D01*
G37*
G36*
X156417200Y-70004000D02*
G01*
X156079500Y-70004000D01*
X156079500Y-69441100D01*
X156417200Y-69441100D01*
X156417200Y-70004000D01*
G37*
G36*
X156417200Y-75182800D02*
G01*
X156192100Y-75182800D01*
X156192100Y-74957600D01*
X156417200Y-74957600D01*
X156417200Y-75182800D01*
G37*
G36*
X156642400Y-69215900D02*
G01*
X156304600Y-69215900D01*
X156304600Y-67639700D01*
X156642400Y-67639700D01*
X156642400Y-69215900D01*
G37*
G36*
X156642400Y-69328500D02*
G01*
X156417200Y-69328500D01*
X156417200Y-69215900D01*
X156642400Y-69215900D01*
X156642400Y-69328500D01*
G37*
G36*
X156642400Y-72030500D02*
G01*
X156417200Y-72030500D01*
X156417200Y-71917900D01*
X156642400Y-71917900D01*
X156642400Y-72030500D01*
G37*
G36*
X156642400Y-72255600D02*
G01*
X156417200Y-72255600D01*
X156417200Y-72143000D01*
X156642400Y-72143000D01*
X156642400Y-72255600D01*
G37*
G36*
X156642400Y-74282100D02*
G01*
X156529800Y-74282100D01*
X156529800Y-74169500D01*
X156642400Y-74169500D01*
X156642400Y-74282100D01*
G37*
G36*
X156642400Y-74957600D02*
G01*
X156529800Y-74957600D01*
X156529800Y-74845000D01*
X156642400Y-74845000D01*
X156642400Y-74957600D01*
G37*
G36*
X156755000Y-72143000D02*
G01*
X156417200Y-72143000D01*
X156417200Y-72030500D01*
X156755000Y-72030500D01*
X156755000Y-72143000D01*
G37*
G36*
X156755000Y-74845000D02*
G01*
X156417200Y-74845000D01*
X156417200Y-74282100D01*
X156755000Y-74282100D01*
X156755000Y-74845000D01*
G37*
G36*
X156980100Y-71917900D02*
G01*
X156755000Y-71917900D01*
X156755000Y-71692700D01*
X156980100Y-71692700D01*
X156980100Y-71917900D01*
G37*
G36*
X156980100Y-74169500D02*
G01*
X156755000Y-74169500D01*
X156755000Y-72143000D01*
X156980100Y-72143000D01*
X156980100Y-74169500D01*
G37*
G36*
X157317900Y-71580100D02*
G01*
X156980100Y-71580100D01*
X156980100Y-71355000D01*
X157317900Y-71355000D01*
X157317900Y-71580100D01*
G37*
G36*
X157317900Y-71692700D02*
G01*
X157092700Y-71692700D01*
X157092700Y-71580100D01*
X157317900Y-71580100D01*
X157317900Y-71692700D01*
G37*
G36*
X157880800Y-71129800D02*
G01*
X157317900Y-71129800D01*
X157317900Y-71017200D01*
X157880800Y-71017200D01*
X157880800Y-71129800D01*
G37*
G36*
X157880800Y-71355000D02*
G01*
X157317900Y-71355000D01*
X157317900Y-71242400D01*
X157880800Y-71242400D01*
X157880800Y-71355000D01*
G37*
G36*
X157993400Y-71242400D02*
G01*
X157317900Y-71242400D01*
X157317900Y-71129800D01*
X157993400Y-71129800D01*
X157993400Y-71242400D01*
G37*
%TD*%
M02*
