M48
; DRILL file KiCad 10.0.1 date 2026-10-09T09:32:20
; FORMAT={-:-/ absolute / metric / decimal}
; #@! TF.CreationDate,2026-10-09T09:32:20+03:00
; #@! TF.GenerationSoftware,Kicad,Pcbnew,10.0.1
; #@! TF.FileFunction,Plated,1,4,PTH
FMAT,2
METRIC
; #@! TA.AperFunction,Plated,PTH,ViaDrill
T1C0.300
; #@! TA.AperFunction,Plated,PTH,ViaDrill
T2C0.400
; #@! TA.AperFunction,Plated,PTH,ComponentDrill
T3C0.800
; #@! TA.AperFunction,Plated,PTH,ComponentDrill
T4C0.813
; #@! TA.AperFunction,Plated,PTH,ComponentDrill
T5C1.000
; #@! TA.AperFunction,Plated,PTH,ComponentDrill
T6C1.016
; #@! TA.AperFunction,Plated,PTH,ComponentDrill
T7C3.200
%
G90
G05
T1
X74.9Y-135.4
X80.9Y-121.2
X81.8Y-111.7
X82.7Y-133.2
X84.9Y-108.5
X85.0Y-88.2
X85.0Y-91.4
X87.7Y-104.1
X89.9Y-88.3
X90.2Y-89.0
X90.2Y-93.4
X91.4Y-92.2
X91.8Y-82.5
X96.6Y-82.8
X96.7Y-73.9
X97.1Y-58.9
X97.7Y-143.8
X97.8Y-89.0
X99.4Y-59.8
X99.5Y-105.1
X99.9Y-98.2
X100.1Y-109.2
X101.1Y-97.0
X101.1Y-110.0
X105.3Y-89.5
X106.3Y-92.7
X107.8Y-146.8
X109.1Y-74.2
X110.3Y-56.7
X111.7Y-56.9
X113.5Y-146.8
X117.8Y-142.7
X118.2Y-116.3
X118.2Y-117.1
X118.2Y-118.1
X118.5Y-93.3
X118.5Y-95.5
X119.3Y-127.1
X119.3Y-130.3
X119.3Y-134.1
X121.4Y-142.8
X122.6Y-116.3
X122.6Y-127.1
X122.6Y-134.1
X123.1Y-110.2
X123.1Y-130.3
X123.5Y-116.4
X126.6Y-93.5
X126.6Y-94.7
X126.7Y-87.4
X127.5Y-88.6
X129.8Y-76.4
X130.0Y-59.4
X130.7Y-58.1
X133.3Y-141.9
X134.1Y-143.2
X135.1Y-95.6
X135.3Y-71.7
X135.8Y-94.1
X137.1Y-109.4
X137.2Y-143.1
X137.3Y-82.7
X137.3Y-136.4
X137.4Y-70.7
X138.4Y-106.6
X139.0Y-58.1
X142.5Y-57.5
X143.3Y-57.7
X143.7Y-99.6
X144.0Y-95.8
X147.3Y-79.7
X148.4Y-143.2
X148.6Y-127.1
X150.1Y-105.8
X150.9Y-106.6
X151.1Y-65.2
X152.9Y-103.8
X153.5Y-77.6
X153.7Y-144.8
X155.0Y-134.2
X155.2Y-135.6
X155.5Y-127.5
X157.4Y-86.6
X157.8Y-82.7
X157.9Y-92.3
X158.0Y-103.8
X158.0Y-108.4
X158.3Y-136.4
X159.3Y-83.3
X159.4Y-101.6
X159.5Y-90.5
X159.9Y-97.0
X160.1Y-92.0
X160.5Y-95.8
X160.8Y-90.1
X161.4Y-91.6
X161.7Y-88.6
X162.1Y-98.9
X162.1Y-125.9
X162.3Y-97.0
X162.4Y-98.2
X162.5Y-63.3
X162.7Y-86.3
X162.8Y-81.0
X162.9Y-105.3
X162.95Y-138.2
X163.0Y-99.6
X163.1Y-88.4
X163.5Y-90.0
X163.6Y-82.5
X163.6Y-100.3
X163.6Y-106.6
X163.6Y-112.8
X164.0Y-68.8
X164.0Y-73.4
X164.0Y-91.1
X164.1Y-137.8
X164.2Y-93.9
X164.5Y-136.6
X164.6Y-101.6
X164.8Y-98.3
X165.1Y-69.0
X165.1Y-69.8
X165.1Y-81.0
X165.1Y-83.8
X165.1Y-88.4
X166.3Y-87.0
X166.45Y-138.4
X166.7Y-58.6
X166.7Y-78.7
X166.7Y-111.8
X166.8Y-96.2
X166.8Y-97.0
X167.1Y-83.4
X167.4Y-140.1
X168.6Y-65.6
X169.2Y-84.4
X169.2Y-90.9
X169.3Y-64.1
X169.3Y-81.0
X169.5Y-86.3
X169.5Y-98.2
X169.5Y-101.0
X170.1Y-66.5
X170.2Y-59.2
X170.2Y-82.7
X170.7Y-109.1
X170.7Y-111.3
X170.9Y-84.8
X170.9Y-136.6
X171.0Y-81.9
X171.075Y-80.025
X171.2Y-71.6
X171.2Y-72.8
X171.5Y-113.9
X171.6Y-91.6
X171.6Y-94.8
X171.8Y-114.7
X171.9Y-62.2
X172.4Y-72.8
X172.8Y-65.9
X172.8Y-71.1
X172.8Y-74.5
X172.8Y-92.3
X172.8Y-137.8
X173.0Y-85.6
X173.1Y-90.3
X173.1Y-91.6
X173.1Y-97.6
X173.1Y-114.6
X173.3Y-117.3
X173.4Y-110.5
X173.5Y-125.8
X173.875Y-131.125
X174.7Y-58.6
X176.2Y-133.3
X176.7Y-110.3
X176.8Y-121.8
X177.0Y-61.0
X177.0Y-133.9
X177.1Y-59.7
X177.1Y-108.6
X177.4Y-122.8
X177.7Y-123.7
X178.0Y-108.6
X178.0Y-122.2
X178.0Y-134.5
X178.2Y-112.6
X178.6Y-124.6
X178.9Y-121.3
X179.15Y-129.6
X179.2Y-104.9
X179.2Y-106.7
X179.4Y-89.5
X179.4Y-91.2
X179.4Y-124.6
X179.5Y-119.1
X179.628Y-118.175
X179.756Y-72.419
X179.756Y-98.319
X179.8Y-69.1
X179.904Y-62.12
X180.1Y-122.6
X180.3Y-65.2
X180.3Y-107.8
X180.3Y-109.0
X180.5Y-110.3
X180.7Y-102.6
X180.7Y-133.9
X181.1Y-85.5
X181.1Y-119.7
X181.1Y-135.1
X181.2Y-107.7
X181.4Y-111.7
X181.8Y-138.4
X181.85Y-140.8
X182.0Y-101.7
X182.3Y-86.5
X182.3Y-106.7
X182.3Y-114.3
X182.3Y-116.8
X182.4Y-125.2
X182.6Y-121.6
X182.7Y-104.9
X182.9Y-91.7
X183.0Y-127.3
X183.5Y-138.4
X184.1Y-137.9
X184.45Y-77.875
X184.475Y-122.425
X184.5Y-56.7
X184.7Y-124.9
X184.9Y-62.8
X184.9Y-78.6
X185.4Y-127.9
X185.5Y-89.0
X185.7Y-64.9
X185.8Y-83.8
X185.9Y-80.8
X185.9Y-132.8
X186.7Y-116.3
X186.814Y-104.632
X186.9Y-117.8
X187.035Y-57.516
X187.035Y-78.284
X187.035Y-83.416
X187.1Y-81.4
X187.2Y-96.1
X187.4Y-117.2
X187.5Y-101.7
X187.9Y-126.5
X188.0Y-112.1
X188.5Y-99.0
X188.719Y-104.868
X188.775Y-78.572
X188.9Y-82.8
X189.5Y-68.7
X189.6Y-94.2
X189.8Y-63.0
X189.8Y-64.6
X189.8Y-70.1
X189.9Y-77.8
X190.1Y-89.1
X190.2Y-70.9
X190.2Y-111.7
X190.2Y-126.5
X190.3Y-58.0
X190.3Y-112.9
X190.6Y-90.4
X190.6Y-92.0
X191.0Y-82.3
X191.0Y-117.8
X191.1Y-99.0
X192.2Y-81.1
X192.4Y-73.2
X192.5Y-79.8
X192.9Y-62.9
X192.9Y-87.0
X193.0Y-84.2
X193.3Y-108.3
X193.8Y-105.3
X194.1Y-57.0
X194.3Y-63.5
X194.3Y-116.2
X194.7Y-82.3
X194.819Y-57.356
X194.819Y-83.256
X194.9Y-66.6
X195.0Y-62.5
X195.0Y-63.8
X195.2Y-86.8
X195.6Y-111.6
X195.6Y-114.1
X195.8Y-109.2
X196.3Y-82.0
X197.2Y-78.0
X197.2Y-103.9
X197.2Y-127.2
X197.3Y-141.2
X197.4Y-101.6
X197.9Y-97.4
X198.0Y-94.6
X198.0Y-122.0
X198.0Y-133.4
X198.0Y-134.2
X198.2Y-84.0
X198.2Y-119.7
X198.3Y-106.6
X198.3Y-114.3
X199.6Y-93.9
X200.0Y-96.5
X200.1Y-62.5
X200.1Y-70.8
X200.2Y-84.6
X200.3Y-69.8
X200.4Y-74.8
X200.4Y-112.8
X200.4Y-114.4
X200.547Y-76.5
X200.547Y-102.4
X200.649Y-123.577
X200.684Y-116.435
X200.694Y-119.364
X200.7Y-85.9
X200.7Y-98.5
X200.7Y-99.7
X200.844Y-124.219
X200.972Y-66.375
X200.972Y-92.275
X201.1Y-58.7
X201.1Y-83.7
X201.2Y-87.3
X201.7Y-121.4
X201.8Y-86.8
X201.9Y-125.8
X202.1Y-70.6
X202.1Y-98.7
X202.4Y-87.4
X202.7Y-98.1
X202.8Y-116.5
X202.8Y-125.8
X203.1Y-108.5
X203.4Y-77.75
X203.5Y-63.1
X203.5Y-115.8
X203.675Y-78.975
X203.8Y-107.9
X203.8Y-109.5
X204.9Y-105.7
X204.9Y-110.6
X205.2Y-114.9
X205.5Y-106.2
X205.5Y-107.8
X206.0Y-73.6
X206.0Y-74.8
X206.2Y-97.2
X206.2Y-107.1
X207.0Y-88.8
X207.8Y-76.3
X208.1Y-62.2
X208.4Y-73.6
X208.4Y-74.8
X208.4Y-93.4
X208.8Y-59.9
X208.8Y-61.5
X209.2Y-92.5
X209.3Y-130.5
X209.8Y-93.3
X210.1Y-61.2
X210.1Y-131.3
X210.7Y-116.2
X210.7Y-117.0
X210.7Y-117.9
X211.3Y-90.5
X211.3Y-112.8
X211.3Y-114.8
X212.6Y-93.3
X212.9Y-127.4
X215.4Y-124.9
X215.9Y-113.6
X218.3Y-60.0
T2
X76.472Y-148.109
X77.423Y-147.338
X77.625Y-122.5
X77.675Y-125.05
X77.675Y-127.625
X77.675Y-130.15
X77.675Y-132.625
X77.675Y-137.7
X77.675Y-139.646
X77.955Y-80.372
X78.102Y-79.337
X78.199Y-100.072
X78.35Y-146.445
X78.869Y-80.997
X78.894Y-83.32
X79.035Y-75.475
X79.323Y-145.121
X79.663Y-107.075
X80.275Y-144.35
X81.0Y-90.75
X81.025Y-83.75
X81.075Y-123.775
X81.4Y-76.45
X81.6Y-126.3
X81.754Y-93.297
X81.775Y-84.4
X81.785Y-70.3
X82.075Y-119.95
X82.175Y-128.85
X82.414Y-99.751
X82.711Y-141.55
X83.025Y-116.875
X83.25Y-65.7
X83.339Y-139.0
X83.775Y-114.55
X83.846Y-66.445
X84.371Y-111.146
X84.452Y-67.18
X84.988Y-67.967
X85.225Y-131.425
X88.052Y-74.361
X89.325Y-143.925
X89.55Y-73.733
X92.399Y-151.251
X92.912Y-146.75
X93.006Y-149.756
X94.65Y-73.35
X95.225Y-86.979
X95.462Y-139.75
X96.064Y-93.424
X97.149Y-148.717
X98.222Y-86.979
X98.55Y-59.29
X99.487Y-110.555
X99.93Y-102.76
X101.043Y-88.248
X101.914Y-87.08
X102.323Y-99.797
X103.472Y-86.127
X106.3Y-77.375
X108.083Y-77.358
X110.15Y-67.75
X110.971Y-68.424
X111.791Y-69.098
X112.174Y-89.925
X112.45Y-79.147
X112.612Y-69.771
X113.621Y-87.903
X113.622Y-79.12
X114.119Y-113.185
X114.95Y-78.0
X117.55Y-77.329
X117.764Y-141.619
X118.1Y-70.35
X118.393Y-143.85
X118.803Y-119.493
X118.914Y-69.757
X119.021Y-146.4
X119.65Y-149.95
X119.729Y-69.164
X120.35Y-147.45
X120.543Y-68.571
X120.9Y-144.85
X121.357Y-67.979
X121.424Y-141.924
X121.729Y-140.253
X122.069Y-139.364
X122.171Y-67.386
X122.375Y-71.702
X122.986Y-66.793
X123.8Y-66.2
X124.75Y-153.843
X127.65Y-87.2
X128.135Y-109.213
X128.45Y-154.148
X132.75Y-79.757
X133.9Y-153.538
X135.3Y-67.6
X135.3Y-70.758
X135.3Y-73.604
X136.825Y-73.938
X137.75Y-152.929
X137.8Y-65.75
X137.9Y-72.975
X138.8Y-127.1
X138.85Y-73.938
X139.532Y-73.273
X140.24Y-102.231
X140.32Y-80.01
X141.4Y-72.644
X141.65Y-60.079
X141.7Y-124.55
X142.95Y-72.015
X143.2Y-121.95
X143.427Y-94.915
X144.567Y-99.577
X145.25Y-70.758
X145.45Y-124.5
X146.95Y-69.5
X147.456Y-100.215
X148.714Y-151.976
X148.804Y-100.198
X150.337Y-88.427
X150.55Y-70.758
X150.55Y-80.671
X152.35Y-67.6
X153.05Y-80.329
X153.434Y-134.684
X153.65Y-69.55
X154.4Y-65.75
X154.565Y-88.637
X154.9Y-129.6
X155.529Y-115.55
X155.65Y-72.015
X155.65Y-79.7
X155.662Y-63.926
X156.15Y-119.4
X156.568Y-64.555
X156.786Y-113.335
X157.45Y-120.7
X158.15Y-72.644
X158.154Y-64.555
X160.678Y-65.183
X160.7Y-73.309
X163.25Y-73.938
X163.254Y-65.812
X163.383Y-137.25
X165.2Y-129.6
X166.171Y-102.85
X166.2Y-132.35
X167.21Y-74.818
X167.85Y-74.1
X170.75Y-105.95
X172.75Y-106.85
X180.404Y-88.659
X193.263Y-73.217
X208.711Y-97.768
T3
X87.2Y-111.824
X87.2Y-114.364
X87.2Y-116.904
X87.2Y-119.444
X87.2Y-121.984
X87.2Y-124.524
X87.2Y-127.064
X87.2Y-129.604
X87.2Y-132.144
X87.2Y-134.684
X87.2Y-137.224
X87.2Y-139.764
X87.2Y-142.304
X87.2Y-144.844
X87.2Y-147.384
X87.2Y-149.924
X102.44Y-111.824
X102.44Y-114.364
X102.44Y-116.904
X102.44Y-119.444
X102.44Y-121.984
X102.44Y-124.524
X102.44Y-127.064
X102.44Y-129.604
X102.44Y-132.144
X102.44Y-134.684
X102.44Y-137.224
X102.44Y-139.764
X102.44Y-142.304
X102.44Y-144.844
X102.44Y-147.384
X102.44Y-149.924
X111.4Y-111.824
X111.4Y-114.364
X111.4Y-116.904
X111.4Y-119.444
X111.4Y-121.984
X111.4Y-124.524
X111.4Y-127.064
X111.4Y-129.604
X111.4Y-132.144
X111.4Y-134.684
X111.4Y-137.224
X111.4Y-139.764
X111.4Y-142.304
X111.4Y-144.844
X111.4Y-147.384
X111.4Y-149.924
X121.5Y-90.68
X121.5Y-98.3
X126.64Y-111.824
X126.64Y-114.364
X126.64Y-116.904
X126.64Y-119.444
X126.64Y-121.984
X126.64Y-124.524
X126.64Y-127.064
X126.64Y-129.604
X126.64Y-132.144
X126.64Y-134.684
X126.64Y-137.224
X126.64Y-139.764
X126.64Y-142.304
X126.64Y-144.844
X126.64Y-147.384
X126.64Y-149.924
X129.12Y-90.68
X129.12Y-98.3
X135.6Y-111.824
X135.6Y-114.364
X135.6Y-116.904
X135.6Y-119.444
X135.6Y-121.984
X135.6Y-124.524
X135.6Y-127.064
X135.6Y-129.604
X135.6Y-132.144
X135.6Y-134.684
X135.6Y-137.224
X135.6Y-139.764
X135.6Y-142.304
X135.6Y-144.844
X135.6Y-147.384
X135.6Y-149.924
X137.83Y-90.48
X137.83Y-98.1
X140.37Y-90.48
X140.37Y-98.1
X142.91Y-90.48
X142.91Y-98.1
X145.45Y-90.48
X145.45Y-98.1
X147.99Y-90.48
X147.99Y-98.1
X150.53Y-90.48
X150.53Y-98.1
X150.84Y-111.824
X150.84Y-114.364
X150.84Y-116.904
X150.84Y-119.444
X150.84Y-121.984
X150.84Y-124.524
X150.84Y-127.064
X150.84Y-129.604
X150.84Y-132.144
X150.84Y-134.684
X150.84Y-137.224
X150.84Y-139.764
X150.84Y-142.304
X150.84Y-144.844
X150.84Y-147.384
X150.84Y-149.924
X153.07Y-90.48
X153.07Y-98.1
X155.61Y-90.48
X155.61Y-98.1
X159.8Y-111.824
X159.8Y-114.364
X159.8Y-116.904
X159.8Y-119.444
X159.8Y-121.984
X159.8Y-124.524
X159.8Y-127.064
X159.8Y-129.604
X159.8Y-132.144
X159.8Y-134.684
X159.8Y-137.224
X159.8Y-139.764
X159.8Y-142.304
X159.8Y-144.844
X159.8Y-147.384
X159.8Y-149.924
X175.04Y-111.824
X175.04Y-114.364
X175.04Y-116.904
X175.04Y-119.444
X175.04Y-121.984
X175.04Y-124.524
X175.04Y-127.064
X175.04Y-129.604
X175.04Y-132.144
X175.04Y-134.684
X175.04Y-137.224
X175.04Y-139.764
X175.04Y-142.304
X175.04Y-144.844
X175.04Y-147.384
X175.04Y-149.924
X181.41Y-61.55
X181.41Y-64.09
X181.41Y-66.63
X181.41Y-69.17
X181.41Y-71.71
X181.41Y-74.25
X181.41Y-87.45
X181.41Y-89.99
X181.41Y-92.53
X181.41Y-95.07
X181.41Y-97.61
X181.41Y-100.15
X181.41Y-113.35
X181.41Y-115.89
X181.41Y-118.43
X181.41Y-120.97
X181.41Y-123.51
X181.41Y-126.05
X183.95Y-59.01
X183.95Y-61.55
X183.95Y-64.09
X183.95Y-66.63
X183.95Y-69.17
X183.95Y-71.71
X183.95Y-74.25
X183.95Y-76.79
X183.95Y-84.91
X183.95Y-87.45
X183.95Y-89.99
X183.95Y-92.53
X183.95Y-95.07
X183.95Y-97.61
X183.95Y-100.15
X183.95Y-102.69
X183.95Y-110.81
X183.95Y-113.35
X183.95Y-115.89
X183.95Y-118.43
X183.95Y-120.97
X183.95Y-123.51
X183.95Y-126.05
X183.95Y-128.59
X186.49Y-59.01
X186.49Y-61.55
X186.49Y-74.25
X186.49Y-76.79
X186.49Y-84.91
X186.49Y-87.45
X186.49Y-100.15
X186.49Y-102.69
X186.49Y-110.81
X186.49Y-113.35
X186.49Y-126.05
X186.49Y-128.59
X189.03Y-59.01
X189.03Y-61.55
X189.03Y-74.25
X189.03Y-76.79
X189.03Y-84.91
X189.03Y-87.45
X189.03Y-100.15
X189.03Y-102.69
X189.03Y-110.81
X189.03Y-113.35
X189.03Y-126.05
X189.03Y-128.59
X191.57Y-59.01
X191.57Y-61.55
X191.57Y-74.25
X191.57Y-76.79
X191.57Y-84.91
X191.57Y-87.45
X191.57Y-100.15
X191.57Y-102.69
X191.57Y-110.81
X191.57Y-113.35
X191.57Y-126.05
X191.57Y-128.59
X194.11Y-59.01
X194.11Y-61.55
X194.11Y-74.25
X194.11Y-76.79
X194.11Y-84.91
X194.11Y-87.45
X194.11Y-100.15
X194.11Y-102.69
X194.11Y-110.81
X194.11Y-113.35
X194.11Y-126.05
X194.11Y-128.59
X195.772Y-138.442
X196.65Y-59.01
X196.65Y-61.55
X196.65Y-64.09
X196.65Y-66.63
X196.65Y-69.17
X196.65Y-71.71
X196.65Y-74.25
X196.65Y-76.79
X196.65Y-84.91
X196.65Y-87.45
X196.65Y-89.99
X196.65Y-92.53
X196.65Y-95.07
X196.65Y-97.61
X196.65Y-100.15
X196.65Y-102.69
X196.65Y-110.81
X196.65Y-113.35
X196.65Y-115.89
X196.65Y-118.43
X196.65Y-120.97
X196.65Y-123.51
X196.65Y-126.05
X196.65Y-128.59
X199.19Y-61.55
X199.19Y-64.09
X199.19Y-66.63
X199.19Y-69.17
X199.19Y-71.71
X199.19Y-74.25
X199.19Y-87.45
X199.19Y-89.99
X199.19Y-92.53
X199.19Y-95.07
X199.19Y-97.61
X199.19Y-100.15
X199.19Y-113.35
X199.19Y-115.89
X199.19Y-118.43
X199.19Y-120.97
X199.19Y-123.51
X199.19Y-126.05
X200.652Y-138.442
X214.23Y-78.725
X214.23Y-81.265
X214.23Y-83.805
X214.23Y-86.345
X221.85Y-78.725
X221.85Y-81.265
X221.85Y-83.805
X221.85Y-86.345
T4
X81.396Y-62.182
X83.936Y-62.182
X87.03Y-61.67
X87.03Y-84.53
X87.205Y-90.454
X89.57Y-61.67
X89.57Y-84.53
X89.745Y-90.454
X92.11Y-61.67
X92.11Y-84.53
X92.8Y-68.548
X92.8Y-78.708
X94.65Y-61.67
X94.65Y-84.53
X95.001Y-108.593
X95.767Y-68.548
X95.767Y-78.708
X97.19Y-61.67
X97.19Y-84.53
X98.733Y-68.548
X98.733Y-78.708
X99.73Y-61.67
X99.73Y-84.53
X101.07Y-58.43
X101.7Y-68.548
X101.7Y-78.708
X102.27Y-61.67
X102.27Y-84.53
X104.538Y-68.548
X104.538Y-78.708
X104.81Y-61.67
X104.81Y-84.53
X105.161Y-108.593
X105.64Y-126.89
X107.35Y-61.67
X107.35Y-84.53
X107.625Y-68.545
X107.625Y-78.705
X108.18Y-126.89
X109.89Y-61.67
X109.89Y-84.53
X111.23Y-58.43
X112.43Y-61.67
X112.43Y-84.53
X113.593Y-91.266
X113.593Y-93.806
X114.97Y-61.67
X114.97Y-84.53
X117.51Y-61.67
X117.51Y-84.53
X120.05Y-61.67
X120.05Y-84.53
X122.59Y-61.67
X122.59Y-84.53
X124.75Y-104.83
X124.75Y-107.37
X125.13Y-61.67
X125.13Y-84.53
X127.67Y-61.67
X127.67Y-84.53
X129.82Y-104.324
X129.82Y-108.4
X129.852Y-151.263
X130.16Y-68.624
X130.16Y-78.784
X130.21Y-61.67
X130.21Y-84.53
X132.392Y-151.263
X132.75Y-61.67
X132.75Y-84.53
X133.5Y-88.92
X133.5Y-99.08
X135.29Y-61.67
X135.29Y-84.53
X137.83Y-61.67
X137.83Y-84.53
X139.98Y-104.324
X139.98Y-108.4
X140.37Y-61.67
X140.37Y-84.53
X142.91Y-61.67
X142.91Y-84.53
X145.149Y-104.943
X145.45Y-61.67
X145.45Y-84.53
X147.689Y-104.943
X147.99Y-61.67
X147.99Y-84.53
X150.53Y-61.67
X150.53Y-84.53
X153.07Y-61.67
X153.07Y-84.53
X154.03Y-151.263
X155.61Y-61.67
X155.61Y-84.53
X156.57Y-151.263
X158.15Y-61.67
X158.15Y-84.53
X159.1Y-93.005
X159.1Y-95.545
X159.8Y-106.019
X159.8Y-108.559
X160.69Y-61.67
X160.69Y-84.53
X161.62Y-102.6
X163.23Y-61.67
X163.23Y-84.53
X165.77Y-61.67
X165.77Y-84.53
X166.4Y-89.32
X166.4Y-99.48
X170.4Y-89.32
X170.4Y-99.48
X171.78Y-102.6
X175.8Y-57.73
X175.8Y-60.27
X175.8Y-63.73
X175.8Y-66.27
X175.8Y-69.73
X175.8Y-72.27
X175.8Y-75.73
X175.8Y-78.27
X183.21Y-151.263
X185.306Y-138.443
X185.75Y-151.263
X187.846Y-138.443
X187.846Y-146.143
X187.846Y-152.746
X190.386Y-138.443
X190.386Y-146.143
X195.466Y-146.12
X198.006Y-146.12
X198.006Y-152.746
X201.544Y-152.746
X202.84Y-146.143
X204.9Y-72.6
X204.9Y-78.6
X204.9Y-84.6
X204.9Y-90.6
X204.9Y-96.6
X204.9Y-102.6
X205.38Y-146.143
X205.97Y-138.443
X207.44Y-72.6
X207.44Y-78.6
X207.44Y-84.6
X207.44Y-90.6
X207.44Y-96.6
X207.44Y-102.6
X208.51Y-138.443
X209.164Y-146.122
X210.6Y-122.73
X210.6Y-125.27
X211.05Y-138.443
X211.704Y-146.122
X211.704Y-152.746
X213.946Y-110.296
X213.946Y-119.329
X213.946Y-128.363
X214.06Y-60.93
X214.23Y-65.45
X214.23Y-75.61
X214.362Y-89.353
X214.362Y-99.513
X216.486Y-110.296
X216.486Y-119.329
X216.486Y-128.363
X216.6Y-60.93
X218.078Y-65.45
X218.078Y-75.61
X219.122Y-142.85
X220.66Y-60.84
X221.85Y-65.45
X221.85Y-75.61
X222.678Y-142.85
X223.2Y-60.84
X226.459Y-79.525
X226.459Y-86.101
X228.005Y-142.925
X228.999Y-79.525
X228.999Y-86.101
X230.545Y-142.925
T5
X73.325Y-65.35
X73.325Y-67.89
X73.325Y-70.43
X73.325Y-72.97
X73.325Y-75.51
X73.325Y-78.05
X73.325Y-80.59
X73.325Y-83.13
X73.325Y-85.67
X73.325Y-88.21
X73.325Y-90.75
X73.325Y-93.29
X73.325Y-95.83
X73.325Y-98.37
X73.325Y-100.91
X73.325Y-103.45
X73.325Y-105.99
X73.325Y-108.53
X73.325Y-111.07
X73.325Y-113.61
X73.325Y-116.15
X73.325Y-118.69
X73.325Y-121.23
X73.325Y-123.77
X73.325Y-126.31
X73.325Y-128.85
X73.325Y-131.39
X73.325Y-133.93
X73.325Y-136.47
X73.325Y-139.01
X73.325Y-141.55
X73.325Y-144.09
X75.865Y-65.35
X75.865Y-67.89
X75.865Y-70.43
X75.865Y-72.97
X75.865Y-75.51
X75.865Y-78.05
X75.865Y-80.59
X75.865Y-83.13
X75.865Y-85.67
X75.865Y-88.21
X75.865Y-90.75
X75.865Y-93.29
X75.865Y-95.83
X75.865Y-98.37
X75.865Y-100.91
X75.865Y-103.45
X75.865Y-105.99
X75.865Y-108.53
X75.865Y-111.07
X75.865Y-113.61
X75.865Y-116.15
X75.865Y-118.69
X75.865Y-121.23
X75.865Y-123.77
X75.865Y-126.31
X75.865Y-128.85
X75.865Y-131.39
X75.865Y-133.93
X75.865Y-136.47
X75.865Y-139.01
X75.865Y-141.55
X75.865Y-144.09
X162.8Y-93.13
X162.8Y-95.67
X204.9Y-58.4
X204.9Y-60.94
X204.9Y-63.48
X204.9Y-66.02
X204.9Y-68.56
X207.44Y-58.4
X207.44Y-60.94
X207.44Y-63.48
X207.44Y-66.02
X207.44Y-68.56
T6
X104.703Y-91.393
X104.703Y-93.933
X109.018Y-91.393
X109.018Y-93.933
X219.73Y-151.0
X221.564Y-91.159
X221.564Y-93.699
X221.564Y-99.558
X221.564Y-102.098
X221.564Y-104.638
X221.564Y-107.178
X221.564Y-109.718
X221.564Y-112.258
X222.27Y-151.0
X224.659Y-67.199
X224.659Y-73.701
X228.3Y-91.159
X228.3Y-93.699
X228.3Y-99.558
X228.3Y-102.098
X228.3Y-104.638
X228.3Y-107.178
X228.3Y-109.718
X228.3Y-112.258
X228.3Y-118.61
X228.3Y-121.15
X228.3Y-123.69
X228.3Y-126.23
X228.3Y-128.77
X228.3Y-131.31
X229.181Y-67.199
X229.181Y-73.701
T7
X71.5Y-58.7
X71.5Y-151.5
X229.3Y-58.7
X229.3Y-151.5
M30
